<?xml version="1.0" encoding="UTF-8" standalone="no"?>
<svg width="174px" height="100px" viewBox="0 0 174 100" version="1.1" xmlns="http://www.w3.org/2000/svg" xmlns:xlink="http://www.w3.org/1999/xlink" xmlns:sketch="http://www.bohemiancoding.com/sketch/ns">
    <!-- Generator: Sketch 3.4.4 (17249) - http://www.bohemiancoding.com/sketch -->
    <title>images/brand/brand</title>
    <desc>Created with Sketch.</desc>
    <defs>
        <path id="path-1" d="M0,0.0569452736 L50.3572436,0.0569452736 L50.3572436,64.6666667 L0,64.6666667"></path>
        <path id="path-3" d="M0,0.0569452736 L50.3572436,0.0569452736 L50.3572436,64.6666667 L0,64.6666667"></path>
        <path id="path-5" d="M0,0.0569452736 L50.3572436,0.0569452736 L50.3572436,64.6666667 L0,64.6666667"></path>
        <path id="path-7" d="M0,0.237658228 L113.621316,0.237658228 L113.621316,100 L0,100"></path>
        <path id="path-9" d="M0,0.237658228 L113.621316,0.237658228 L113.621316,100 L0,100"></path>
        <path id="path-11" d="M0,0.237658228 L113.621316,0.237658228 L113.621316,100 L0,100 L0,0.237658228 Z"></path>
        <path id="path-13" d="M0,0.237658228 L113.621316,0.237658228 L113.621316,100 L0,100"></path>
        <path id="path-15" d="M0,0.237658228 L113.621316,0.237658228 L113.621316,100 L0,100 L0,0.237658228 Z"></path>
    </defs>
    <g id="Page-1" stroke="none" stroke-width="1" fill="none" fill-rule="evenodd" sketch:type="MSPage">
        <g id="Desktop-HD" sketch:type="MSArtboardGroup" transform="translate(-47.000000, -42.000000)">
            <g id="images/brand/brand" sketch:type="MSLayerGroup" transform="translate(47.000000, 42.000000)">
                <g id="Page-1" transform="translate(122.792248, 7.333333)">
                    <path d="M5.62330876,35.0823905 C5.4413823,35.1919378 5.23220494,35.2668997 5.05941286,35.3899594 C4.69297187,35.6507172 4.69084052,35.5976327 4.81095765,36.0202181 C4.95467194,36.5266128 5.33146523,36.9794403 5.51948128,37.4851915 C5.64477456,37.822359 5.82533086,38.92684 6.07074128,39.0391219 C6.35771314,39.1705464 7.28028581,38.4550307 7.55797105,38.3347056 C7.88269836,38.1939511 8.25614238,38.1575962 8.41386272,37.7810174 C8.60203101,37.3317289 8.38326254,36.5063441 8.24107065,36.0733027 C8.12034455,35.7054104 7.80931882,34.9464619 7.45414356,34.7505315 C6.97245711,34.4847869 6.06510841,34.9261932 5.62330876,35.0823905 C5.59681905,35.0983159 6.20851822,34.8753607 5.62330876,35.0823905" id="Fill-1" fill="#FEFEFE" sketch:type="MSShapeGroup"></path>
                    <path d="M5.96697469,43.0981617 C6.16777888,42.7526294 7.32236487,43.0090439 7.67830132,43.0149959 C8.46659856,43.0281866 8.27401532,43.2828317 8.01033613,44.0443541 C7.76766603,44.7449096 7.46455676,45.5799461 6.80277072,44.8515614 C6.66560274,44.7006725 5.79189902,43.1756973 5.96697469,43.0981617 C6.02330339,43.0011617 5.95266416,43.1044353 5.96697469,43.0981617 M8.25711671,60.8333972 C8.17018783,59.8143342 8.15724746,58.7869063 8.145525,57.7639826 C8.14111005,57.3811302 8.01475109,56.3789577 8.20276713,56.0406642 C8.37038306,55.7387255 9.02958102,55.8344386 9.43651778,55.7856973 C10.4237923,55.6677852 11.4264431,55.5297653 12.3619561,55.5727156 C12.6967312,55.5879975 13.1761341,55.5210788 13.4780255,55.3515299 C13.7793079,55.1823027 13.7675854,55.081442 13.8280246,54.6556393 C13.9219565,53.9938516 13.9382461,53.2229992 13.5961635,52.6303823 C13.1537549,51.8641949 12.523178,51.9858068 11.7773556,52.0408217 C10.912634,52.1048449 10.0570468,52.3403474 9.18623569,52.326835 C8.88221298,52.32217 8.71611945,52.3913408 8.59661127,52.1149793 C8.52688548,51.9537952 8.59204408,51.4519046 8.58960825,51.2921683 C8.58123506,50.7558532 8.57621115,50.2198599 8.57864699,49.6835448 C9.51613915,49.7104088 10.4513477,49.6756625 11.3591531,49.6129262 C12.4118907,49.5402164 13.3537979,49.6888532 13.7232836,48.5208317 C13.8036662,48.2669909 13.8367022,48.3292446 13.8738487,48.0171716 C13.8944011,47.8432794 13.8813085,47.7041335 13.8730875,47.5204287 C13.850556,47.010495 13.8147797,46.4735365 13.5692171,46.0234436 C12.9873569,44.9572479 11.3177439,45.3597255 10.3557412,45.4169925 C10.5664409,44.87183 10.7071104,44.2069859 10.980533,43.6952828 C11.2658302,43.1617023 11.5287482,43.4544718 12.0501692,43.3376857 C13.0869216,43.1057222 12.633704,41.331893 12.522569,40.5299942 C12.3535829,39.3100141 11.9356849,39.222505 10.9073057,39.2759113 C9.7210538,39.3376824 8.53008252,39.1996625 7.3462665,39.3455647 C6.15240267,39.4925929 5.00375402,39.7433773 3.79451398,39.7852015 C3.00195402,39.812709 1.8234664,39.4906625 1.59891282,40.5356244 C1.41059229,41.4123242 1.46707323,42.9471119 2.52255116,43.0848101 C2.63947127,43.100092 2.92781328,43.025291 3.01078393,43.0688847 C3.17109235,43.1530158 3.39488473,43.7354983 3.49505846,43.8883176 C3.79253486,44.3417886 4.13050702,44.7492529 4.35095013,45.2501783 C3.84323068,45.3212794 3.3257679,45.4956542 2.81835293,45.540374 C2.3555442,45.5810721 1.87187863,45.5020887 1.40480718,45.5176924 C0.317358908,45.5538864 0.305788689,46.2811451 0.287976643,47.2776874 C0.280212418,47.7075116 0.159486324,48.3818466 0.450568657,48.7341352 C0.759615277,49.1084619 1.64534593,49.1869627 2.07009473,49.2381169 C3.09177546,49.3608549 4.09305605,49.3819279 5.10377552,49.4382297 C5.02796014,50.4284983 5.02993925,51.4229494 5.0389214,52.415631 C4.7813318,52.2094055 4.05864988,52.3348781 3.70362687,52.3068881 C3.11750397,52.2608814 2.5552827,52.2185746 1.96520157,52.2198615 C1.02847061,52.2217919 0.107877061,52.0707421 0.0583991543,53.3524934 C0.0317572043,54.043558 -0.156867801,55.5672463 0.569163395,55.7996924 C0.956004508,55.9233955 1.6724446,55.8495597 2.09551877,55.8881667 C2.50230328,55.925165 2.91137139,55.9536376 3.32013503,55.9653806 C3.63892499,55.9743889 3.95801943,55.9724585 4.27696163,55.9718151 C4.64751309,55.9710108 4.74753458,55.8786758 4.87358907,56.1432944 C5.07667685,56.5695796 4.9500134,57.7367968 4.98944349,58.2291965 C5.08124404,59.3759842 4.94438053,60.4976774 5.02658998,61.6433391 C5.11032182,62.8089478 5.99894503,63.1699229 6.99124349,63.1041302 C7.37229949,63.0790357 8.01475109,63.0608582 8.25879135,62.7014917 C8.54043482,62.2869494 8.29609008,61.2886376 8.25711671,60.8333972 C8.23930466,60.6245978 8.28695569,61.1815033 8.25711671,60.8333972" id="Fill-3" fill="#FEFEFE" sketch:type="MSShapeGroup"></path>
                    <path id="Fill-5" fill="#FEFEFE" sketch:type="MSShapeGroup" d="M2.43572886,56.6704081 L2.43572886,56.6704081 C2.44273188,56.6607564 2.44349308,56.6599521 2.43572886,56.6704081"></path>
                    <g id="Group-9">
                        <mask id="mask-2" sketch:name="Clip 8" fill="white">
                            <use xlink:href="#path-1"></use>
                        </mask>
                        <g id="Clip-8"></g>
                        <path d="M3.34254471,60.414399 C3.64397935,59.6644587 3.98423511,58.932535 4.1582451,58.1301536 C4.34489099,57.2685748 3.89974207,57.035807 3.19426323,56.7338683 C2.49807102,56.4356295 1.87678075,57.0105516 1.56392813,57.7029032 C1.32262819,58.2369662 1.0922895,58.7452912 0.762690519,59.2327041 C0.40005552,59.7686975 -0.33404438,60.4322547 0.172761627,61.053666 C0.50144717,61.4567871 1.31258037,61.8685947 1.8271506,61.7611386 C2.47082011,61.6266577 2.95281104,60.9022945 3.34254471,60.414399 C3.3701001,60.3458716 3.30204895,60.4650706 3.34254471,60.414399" id="Fill-7" fill="#FEFEFE" sketch:type="MSShapeGroup" mask="url(#mask-2)"></path>
                    </g>
                    <path d="M13.771635,61.3340169 C14.222569,60.9612988 14.2356616,60.1729124 14.371155,59.6351496 C14.5526247,58.9156123 14.7353124,58.4339904 13.9509734,58.1355907 C13.1765299,57.8412126 12.4527823,57.6682856 11.7530886,57.1800683 C11.188127,56.7859556 10.5386724,56.0151032 9.77960519,56.262992 C9.25026771,56.4359191 8.59137423,57.3935327 8.70814209,57.9977317 C8.77116933,58.3241214 9.05113816,58.4494332 9.25072443,58.6509937 C9.48426015,58.8869788 9.65629103,59.1129904 9.90505072,59.3800219 C10.4048537,59.916337 10.9341912,60.4166189 11.5644636,60.7738942 C12.1260759,61.0920799 13.1296401,61.864541 13.771635,61.3340169 C14.1877061,60.9902541 13.5910787,61.4832972 13.771635,61.3340169" id="Fill-10" fill="#FEFEFE" sketch:type="MSShapeGroup"></path>
                    <g id="Group-14">
                        <mask id="mask-4" sketch:name="Clip 13" fill="white">
                            <use xlink:href="#path-3"></use>
                        </mask>
                        <g id="Clip-13"></g>
                        <path d="M18.8045429,48.9260439 C18.4763141,48.950495 17.8722269,49.1324303 17.7152677,48.7757985 C17.6155507,48.5491434 17.9424094,47.125029 17.8548716,47.0616493 C18.5830341,46.9763922 19.3973643,47.0024519 20.1287239,47.0489411 C20.2867488,47.0590755 20.8628238,47.0597189 20.9518841,47.1475498 C21.0857028,47.2796177 21.0485563,48.5985282 21.0793087,48.8084536 C20.3222206,48.8705464 19.5620877,48.8695813 18.8045429,48.9260439 C18.5277711,48.9466343 19.5575205,48.869903 18.8045429,48.9260439 M17.1148343,39.25516 C16.9193585,39.2133358 16.9431079,38.543505 16.9864962,38.3390489 C17.0871267,37.8648267 17.2143991,37.8167289 17.6345807,37.7728134 C18.3703552,37.6959212 19.1498226,37.777961 19.8787463,37.8535663 C20.3490148,37.9023076 20.3543432,37.8678831 20.3672836,38.4025896 C20.3706328,38.5393226 20.4561916,39.1872761 20.3987972,39.2574121 C20.3380535,39.3314088 19.9451228,39.345243 19.8476894,39.3643856 C18.8709194,39.5574204 18.081861,39.4621899 17.1148343,39.25516 C17.0848431,39.2487255 17.6289478,39.3651899 17.1148343,39.25516 M20.5577354,44.5336973 C20.6000581,44.5266194 20.2913159,44.7169196 20.2865965,44.7190108 C20.0465145,44.8187454 19.714023,44.8021766 19.4599349,44.7991202 C19.0443205,44.7941335 18.1231179,44.8446443 17.7423664,44.5875862 C17.2661606,44.2661833 17.6607659,43.2411683 17.5916491,42.6931103 C18.1841661,42.6601335 18.7736382,42.5854934 19.3606746,42.4955713 C19.6535838,42.4506907 20.2372709,42.2431783 20.4487318,42.4806111 C20.7350947,42.802175 20.4711111,44.1043557 20.5577354,44.5336973 M14.4689081,35.7002629 C14.4713439,35.6647123 14.5301085,35.596024 14.4689081,35.7002629 C14.4696693,35.6880373 14.4792604,35.682568 14.4689081,35.7002629 M25.0687504,56.9152728 C24.39783,57.0682529 23.8972658,57.3232197 24.005356,58.1349312 C22.74405,57.9552479 22.4712364,56.3105912 21.9941172,55.2480954 C21.7138438,54.6234668 21.4742185,53.9766393 21.2317007,53.3290075 C21.1013835,52.9805796 21.0022754,52.7088831 20.9680215,52.3376128 C20.9496005,52.1379826 21.0939237,51.5620954 20.7716322,51.5337836 C20.8358774,51.4033242 21.4521438,51.4921202 21.585658,51.488903 C22.0693236,51.4778035 22.5712579,51.4917985 23.0048366,51.2266973 C23.8502237,50.7096857 23.7833905,49.5912098 23.8902628,48.7125796 C24.0598578,47.3187073 23.9225376,45.8273524 23.8916329,44.4259196 C23.8590536,42.949364 23.8522029,41.4752214 23.8718418,39.9983441 C23.8876747,38.8190622 24.1632286,37.1803574 23.5956789,36.1218831 C23.0294994,35.0663043 22.1302195,34.9815299 21.0952939,34.9141285 C19.7896861,34.8290323 18.4962575,34.9163806 17.1930855,34.969626 C16.3545492,35.0040506 15.2301067,34.9183109 14.5674072,35.5435829 C13.8517283,36.2185614 13.9882873,37.5017604 14.0286308,38.3837687 C14.0803923,39.5175265 14.270083,40.6665663 14.4020749,41.7694386 C14.5671027,43.1499594 14.322758,44.5764867 14.4679947,45.9673027 C14.5981596,47.2135033 14.6888945,48.5254967 14.9152749,49.7548068 C15.0719296,50.6057687 15.4905888,51.1052463 16.3297341,51.2136675 C16.8764269,51.2844469 17.3626806,51.193238 17.7198349,51.7375962 C18.0378637,52.2222745 17.9903649,53.1124867 17.9055674,53.6753441 C17.5025889,56.3537023 16.0139889,58.786102 14.6814347,61.0339925 C14.4014659,61.5061235 14.1164732,61.9399693 13.6947691,62.2858234 C13.393639,62.5327471 12.4302661,62.8670191 12.7067334,63.3716443 C12.9201735,63.7612529 14.1368733,63.879165 14.4897649,64.0939163 C14.8385461,64.3060937 15.5082486,64.7838549 15.9754723,64.6402048 C16.4061584,64.5078151 16.7328649,63.3782396 16.9338213,62.9265381 C17.2066349,62.31317 17.534407,61.7380871 17.8382774,61.1425746 C18.4187675,60.0047952 19.1035417,58.9603159 19.7476679,57.8674171 C20.5303323,60.5020207 22.7361335,61.5173839 25.1954139,61.3460655 C26.7627217,61.2370008 26.5544578,59.8526194 26.5620698,58.5586426 C26.5689206,57.3779129 26.2989995,56.6348897 25.0687504,56.9152728 C24.7201215,56.9947388 25.4039823,56.8388632 25.0687504,56.9152728" id="Fill-12" fill="#FEFEFE" sketch:type="MSShapeGroup" mask="url(#mask-4)"></path>
                    </g>
                    <path d="M50.294734,48.9411007 C50.2434292,47.6500194 49.6451271,47.4431504 48.5605714,47.3628801 C47.4473946,47.2805186 46.3435045,47.2932267 45.2274351,47.2933876 C44.1396824,47.2937093 42.9237438,47.4528022 41.8521284,47.283575 C41.2664622,47.1910791 41.2287068,47.0141305 41.2182023,46.376633 C41.2084589,45.7880376 41.2488024,45.1949381 41.3975406,44.6253245 C41.9213975,42.6176015 43.5021024,41.1262466 44.8990541,39.774842 C45.518213,39.1759514 46.2061842,38.4831172 46.3156446,37.5573544 C46.4260184,36.6230658 46.2637309,35.7413793 45.2995967,35.5850211 C43.5433594,35.3002947 41.6059568,35.3779912 39.8108983,35.3878038 C37.5938314,35.4000294 35.2263516,35.0844174 32.95935,35.319759 C32.1614617,35.4026032 31.8014147,35.5473793 31.4811024,36.3491172 C31.169011,37.1307474 30.2968297,38.5146463 31.424317,38.9407706 C32.3319702,39.2840509 33.4523022,38.8820559 34.3910123,38.8730476 C35.5203265,38.862109 36.6564915,38.9081156 37.7833698,38.9887076 C38.1059658,39.0117109 38.975559,38.9919249 39.2535487,39.1833511 C39.4627261,39.3274837 39.6038523,40.0323826 39.5685327,40.2986098 C39.5103771,40.7374423 39.0364549,41.2314506 38.8283432,41.6122118 C38.5689268,42.0865949 38.3085968,42.5268751 38.0657745,43.0059232 C37.5271504,44.0680973 37.5936791,45.1455534 37.5574461,46.3127706 C37.5469416,46.6563726 37.6608169,47.2555849 37.4020093,47.4970393 C37.0471386,47.8279332 35.8631703,47.6706098 35.4186304,47.6923262 C33.328988,47.7946347 31.1225779,47.919303 29.0368938,47.747502 C28.5404401,47.706643 28.3405493,47.4753229 28.1487273,47.9838088 C28.0251086,48.3116463 28.0943777,48.9661952 28.1208674,49.3289398 C28.1447691,49.6566164 28.1761304,49.9736761 28.1741513,50.3208171 C28.1706498,50.9185816 28.1173659,51.2517275 28.7569249,51.3453494 C29.6938081,51.4824041 30.7999819,51.3313544 31.7491965,51.3418104 C32.9567619,51.355162 34.1643273,51.4716264 35.3712838,51.4515186 C35.9554276,51.441706 37.6825871,51.1426629 37.972756,51.8152284 C38.1476795,52.2204406 38.0121861,52.9391736 38.0135563,53.3738237 C38.0155354,53.9397375 37.9677321,54.4604489 37.9018123,55.0234672 C37.7835221,56.0354522 37.703444,56.9208386 37.3099043,57.8626877 C37.1710617,58.1947076 37.1715184,58.3089199 36.8767823,58.4247408 C36.7201277,58.4865119 36.2060142,58.4884423 36.0607775,58.4260277 C35.4889651,58.1795866 35.0992314,57.4608536 34.4555619,57.2615451 C33.8695913,57.0800924 32.9018034,57.5610708 32.538255,58.0742217 C32.3225313,58.3787342 32.242301,58.9213229 32.2727489,59.2983842 C32.3306,60.0137391 32.8846003,60.2613063 33.4029765,60.5838353 C34.4278543,61.2214937 35.283137,61.9238187 36.3876361,62.4258701 C37.2532711,62.8191786 38.4821501,63.517643 39.345806,62.8119398 C39.8264268,62.4192748 39.8695106,61.9603345 40.0004368,61.3598353 C40.126948,60.7796048 40.3355164,60.2214124 40.4929323,59.6461687 C40.8610479,58.3010376 41.1658318,56.9012134 41.3179193,55.5095932 C41.3961705,54.7935949 41.4363618,54.0928784 41.485383,53.3768801 C41.5173533,52.9090924 41.4948218,52.2859116 41.7021723,51.8453096 C41.7289665,51.7882035 41.7831638,51.495434 41.8347731,51.4629398 C42.0072607,51.3545186 42.750495,51.5050857 42.9736784,51.5023511 C43.530419,51.4957557 44.0871597,51.4891604 44.644357,51.4891604 C45.9971591,51.4891604 47.3501135,51.4877126 48.7029156,51.4867474 C49.1842975,51.4862648 49.8065012,51.4738784 50.1269658,51.0056081 C50.4932546,50.4702582 50.3187879,49.5464257 50.294734,48.9411007 C50.2767697,48.4890774 50.3125461,49.3903892 50.294734,48.9411007" id="Fill-15" fill="#FEFEFE" sketch:type="MSShapeGroup"></path>
                    <g id="Group-19">
                        <mask id="mask-6" sketch:name="Clip 18" fill="white">
                            <use xlink:href="#path-5"></use>
                        </mask>
                        <g id="Clip-18"></g>
                        <path d="M13.8015958,10.3554658 C14.0100119,10.1812519 14.6579441,10.323776 14.8949814,10.3163763 C15.39585,10.3009335 15.891847,10.2621657 16.3949993,10.2700479 C17.0118746,10.2796997 18.0187881,10.0858605 18.4882953,10.6134891 C18.9903819,11.1776333 18.7671985,12.4394376 18.7848583,13.1465886 C18.7956673,13.5752867 18.7478641,13.9885421 18.7308132,14.4119318 C18.7076728,14.9858887 18.8381422,15.30697 18.3932978,15.6714841 C17.8475184,16.1185206 16.94291,16.3186333 16.2764045,16.4600313 C15.755288,16.5705438 14.3635125,16.805242 14.004379,16.211499 C13.8440706,15.9465587 13.9410473,15.3648804 13.9157755,15.0516814 C13.8733007,14.5259833 13.8329571,13.9999633 13.8006823,13.4734609 C13.7783031,13.106373 13.6466157,10.3427577 13.8015958,10.3554658 C13.8318915,10.3300496 13.7711478,10.352892 13.8015958,10.3554658 M6.68347568,16.7352668 C6.16129346,16.7441143 5.67062487,16.7587527 5.15712031,16.8454575 C4.70709972,16.9215454 4.23987603,17.0418705 3.80979884,16.8054028 C2.96791322,16.3426018 3.21910875,15.2649849 3.1725234,14.4495736 C3.12167534,13.5606483 2.76101945,12.1420032 3.3546021,11.3939932 C3.75544926,10.8887245 4.75368507,11.007441 5.34315724,10.9936068 C6.22127591,10.9730164 7.27386129,10.83564 8.11620363,11.0817594 C9.01289555,11.3438041 8.96631019,12.1703149 9.03009863,13.0664791 C9.08703629,13.8669302 9.46687437,15.2394078 8.93631897,15.9050562 C8.40667701,16.5697395 7.45898479,16.7634177 6.68347568,16.7352668 C6.45937882,16.7391275 6.80526745,16.7396101 6.68347568,16.7352668 M0.288189779,17.4115322 C0.37283506,18.1326781 0.597084158,18.8329119 0.953934048,19.465101 C1.41902637,20.2895206 2.34677519,20.328771 3.18104882,20.3286101 C4.54131067,20.3286101 6.00250744,20.1212585 7.33338702,20.2846947 C7.76635677,20.3379401 8.23921332,20.3471093 8.66289644,20.425771 C9.41404719,20.5650778 9.36076329,21.285902 9.29118974,21.9431856 C9.21248181,22.687174 9.19908472,23.3737345 9.24567007,24.1244791 C9.30169428,25.0293299 9.23699241,25.9423846 9.45941463,26.8261624 C9.8683305,28.4507113 11.35282,28.1011574 12.6334604,28.0202436 C13.3218884,27.9766499 13.9223218,27.9587942 13.9552056,27.1150711 C13.9844356,26.3617527 13.9171457,25.6267726 13.8774111,24.8798887 C13.8343273,24.0694642 13.7588164,23.2564658 13.6986817,22.4481325 C13.6685382,22.0424376 13.6447888,21.6854841 13.6994429,21.2775371 C13.7183206,21.1375869 13.7126878,20.8785985 13.7888076,20.7405786 C13.9877849,20.3797643 14.1252574,20.5055587 14.5154478,20.4714559 C15.9967402,20.3422834 17.4453011,20.1331624 18.9380115,19.9380363 C19.6908368,19.8395886 20.7073414,19.8823779 21.2917897,19.3997909 C21.8404616,18.9468025 21.8964858,17.8970148 22.0444628,17.1583348 C22.2918524,15.9232337 22.5256926,14.7043796 22.7143176,13.4634874 C22.8432646,12.6146167 22.7633388,11.8001706 22.6983324,10.9556433 C22.6353052,10.1374973 22.7331953,9.02738624 22.3874589,8.27117231 C21.7570342,6.89129502 20.2101265,6.88421708 18.9387727,6.8174592 C18.1207887,6.77434809 17.3029569,6.83837131 16.4849729,6.83064992 C15.8613991,6.82485887 14.4065964,6.99633814 13.9445488,6.48511758 C13.5437017,6.04129834 13.779521,5.00807944 13.7796732,4.43219221 C13.7799777,3.59088209 13.8040316,2.66865821 13.5919617,1.84970796 C13.4069904,1.13499652 12.8895276,0.607528856 12.2615388,0.285965008 C11.6837891,-0.0100217247 10.5520391,-0.0544197347 10.0386867,0.363822388 C8.89384409,1.2961806 9.28388224,2.98346584 9.28997183,4.28452056 C9.29240766,4.81247081 9.23592673,5.36487214 9.23014162,5.87367977 C9.22770578,6.0987262 9.38710076,6.55316235 9.24871486,6.76131824 C9.02340009,7.10041609 7.49384768,6.93681907 7.06422721,6.97285224 C5.22852074,7.12663665 3.30466747,6.48463499 1.5103702,7.14561841 C-0.0586122899,7.72359685 0.15954722,9.93368474 0.0575466119,11.3394609 C-0.0918005475,13.4009119 0.236732755,15.365363 0.288189779,17.4115322 C0.294279367,17.4641342 0.28742858,17.3849899 0.288189779,17.4115322" id="Fill-17" fill="#FEFEFE" sketch:type="MSShapeGroup" mask="url(#mask-6)"></path>
                    </g>
                    <path d="M40.6374839,10.0518221 C41.4070556,9.44987512 42.5311937,9.68312554 43.4007869,9.76291327 C43.8209685,9.80152023 44.2413024,9.8050592 44.6625497,9.80023333 C45.1932573,9.79412056 45.5096114,9.65384859 45.7168097,10.164104 C45.9174616,10.6585949 45.8153088,11.4490725 45.8102849,11.9701056 C45.8043475,12.5672267 45.7953654,13.1620957 45.8119595,13.7592167 C45.8369268,14.6616546 46.2382307,16.3026114 45.3666583,16.8392483 C44.7411054,17.2245136 43.8026998,17.1460128 43.1103135,17.1439216 C42.2293023,17.1415086 41.1549467,17.0602731 40.6198241,16.2091504 C40.1742184,15.5007126 40.2859624,14.1695766 40.2419651,13.330036 C40.2004036,12.5387541 39.9318528,10.6037408 40.6374839,10.0518221 C40.7965744,9.92731459 40.4969666,10.161691 40.6374839,10.0518221 M31.6433138,10.6195053 C32.2944431,10.204963 33.1922007,10.2305401 33.9276707,10.1938635 C34.2390009,10.1784207 34.9423484,10.0312317 35.2239919,10.1829249 C35.5001547,10.3317226 35.5315161,11.0409647 35.5819074,11.4152914 C35.7218157,12.4512449 35.8047864,13.5467176 35.8527419,14.5924837 C35.8860824,15.3173295 36.0744029,16.4711952 35.4663575,16.9523345 C34.8800824,17.4162615 33.8612942,17.3448386 33.1582512,17.248643 C32.3323508,17.1355567 31.877763,16.7969415 31.5696298,16.012094 C31.2388129,15.1698187 31.1599527,14.218157 31.189335,13.3162018 C31.2150635,12.5292632 30.9066258,11.0889017 31.6433138,10.6195053 C32.1749349,10.2810509 31.4221095,10.7605816 31.6433138,10.6195053 M31.6407257,20.777963 C32.5193011,20.8291172 33.480086,20.6904539 34.3868257,20.7366214 C34.7050067,20.7527076 35.2886938,20.6199962 35.4206856,20.8591985 C35.5908896,21.1675716 35.4051571,22.1354804 35.3887152,22.4890559 C35.3358881,23.6253876 35.44002,24.7340509 35.4473275,25.8713478 C35.4517425,26.5712599 35.4846263,27.7947789 36.1566124,28.1296944 C36.8500643,28.4752267 37.8324671,28.5899216 38.5926,28.569492 C39.441032,28.5466496 40.5219339,28.1227773 40.8146909,27.2029663 C41.1036419,26.2950592 40.7805892,25.2756745 40.7834818,24.3425119 C40.7871355,23.1846247 40.898575,21.9519365 40.7463353,20.8038619 C42.060164,20.8143179 43.4129661,20.7636463 44.7228366,20.5971537 C45.3202252,20.5212267 45.8818375,20.4305003 46.4825754,20.4277657 C46.9472111,20.4256745 47.5077577,20.4377391 47.9565604,20.2956977 C49.1175404,19.9279663 48.8712166,18.0270559 49.0114293,17.0290658 C49.1650392,15.9355235 49.3489448,14.8492201 49.4683007,13.7474738 C49.6147553,12.3963909 49.6307405,11.0424124 49.6334808,9.68264295 C49.6354599,8.69977396 49.6642332,7.10755837 48.5795253,6.8117325 C47.5959045,6.5434141 46.3024759,6.7856728 45.283231,6.80626318 C43.9426081,6.83344892 42.5978747,6.87559486 41.2592309,6.8117325 C40.7953565,6.7895335 40.6285017,6.74111393 40.5494893,6.21815041 C40.4750441,5.72655506 40.5464445,5.1217126 40.5668446,4.62255672 C40.6062747,3.65255672 40.9212587,2.05760647 40.3709121,1.20004925 C39.8883122,0.448339469 38.9594977,0.694780597 38.2150455,0.586037645 C37.2369054,0.443031012 36.154481,0.197876783 35.6339734,1.37361973 C35.1798424,2.39895638 35.2471323,3.89674577 35.2299292,5.00412222 C35.2236874,5.40450862 35.3667927,6.32850199 35.1790812,6.60389834 C34.9327573,6.96551692 34.1631856,6.78213383 33.8017685,6.78181211 C32.4163871,6.78052521 31.0141071,6.70717197 29.630857,6.78197297 C29.1168958,6.80980216 28.6073494,6.90712388 28.1003912,6.94701774 C27.6724453,6.98063798 27.3232074,6.93205755 27.0829732,7.37909403 C26.4689904,8.52153847 26.9649874,10.3222317 27.112051,11.5280559 C27.2874311,12.9669697 27.4891487,14.4078138 27.6097226,15.8526794 C27.6709229,16.5866944 27.7333412,17.3240874 27.7698788,18.0601935 C27.8013924,18.6962433 27.6805141,19.4788386 27.9344499,20.0790161 C28.4493246,21.2959398 30.6726334,20.7215003 31.6407257,20.777963 C31.7109082,20.7819846 30.8802884,20.733565 31.6407257,20.777963" id="Fill-20" fill="#FEFEFE" sketch:type="MSShapeGroup"></path>
                </g>
                <g id="Page-1">
                    <path d="M0.632900059,79.4685443 C0.632900059,79.2622152 0.800352991,79.0856329 0.996014839,79.0856329 L1.47076491,79.0856329 C1.66642676,79.0856329 1.83387969,79.2622152 1.83387969,79.4685443 L1.83387969,92.6653797 L7.78386047,88.099557 C7.92370468,87.9818354 8.09115761,87.9229747 8.23070172,87.9229747 L9.04095784,87.9229747 C9.32034615,87.9229747 9.34825498,88.3055696 9.1246843,88.453038 L3.11888588,93.1071519 L9.85091387,99.2046203 C10.0744845,99.4109494 9.93464033,99.7055696 9.71136976,99.7055696 L8.84529599,99.7055696 C8.67784306,99.7055696 8.53829895,99.6761392 8.28681946,99.4698101 L1.83387969,93.6081013 L1.83387969,99.3226582 C1.83387969,99.5581013 1.7222444,99.7055696 1.47076491,99.7055696 L0.940197196,99.7055696 C0.744535347,99.7055696 0.632900059,99.5286709 0.632900059,99.3226582 L0.632900059,79.4685443 Z" id="Fill-1" fill="#FEFEFE" sketch:type="MSShapeGroup"></path>
                    <path d="M12.5049528,88.3056329 C12.5049528,88.0996203 12.6724057,87.9227215 12.8680676,87.9227215 L13.3707265,87.9227215 C13.5663883,87.9227215 13.7338413,88.0996203 13.7338413,88.3056329 L13.7338413,99.3224051 C13.7338413,99.5581646 13.622206,99.7053165 13.3707265,99.7053165 L12.8122499,99.7053165 C12.6165881,99.7053165 12.5049528,99.5287342 12.5049528,99.3224051 L12.5049528,88.3056329 Z M12.1697468,81.1771519 C12.1697468,80.6173418 12.5886793,80.1461392 13.119247,80.1461392 C13.6501148,80.1461392 14.0693473,80.6173418 14.0693473,81.1771519 C14.0693473,81.7072152 13.6501148,82.1489873 13.119247,82.1489873 C12.5886793,82.1489873 12.1697468,81.7072152 12.1697468,81.1771519 L12.1697468,81.1771519 Z" id="Fill-3" fill="#FEFEFE" sketch:type="MSShapeGroup"></path>
                    <path d="M22.4211673,98.8216772 C24.8513355,98.8216772 26.0526152,96.8482595 26.1084329,96.7302215 L26.1084329,90.1321203 C26.1084329,90.1321203 24.8234267,88.8947785 22.7842821,88.8947785 C20.2145698,88.8947785 18.3986958,91.0156646 18.3986958,93.8140823 C18.3986958,96.5536392 20.0747256,98.8216772 22.4211673,98.8216772 M22.6726468,87.6280063 C24.7955178,87.6280063 26.1084329,88.8064873 26.1084329,88.8064873 L26.1084329,79.4685127 C26.1084329,79.2625 26.247977,79.0856013 26.4715476,79.0856013 L26.9745066,79.0856013 C27.1419595,79.0856013 27.3097126,79.2625 27.3097126,79.4685127 L27.3097126,99.3226266 C27.3097126,99.5286392 27.1419595,99.705538 26.9465978,99.705538 L26.6672095,99.705538 C26.4436388,99.705538 26.3040947,99.5875 26.2761859,99.3226266 L26.1924594,98.2912975 C25.8569534,98.6745253 24.4885208,99.9998418 22.3374408,99.9998418 C19.4322225,99.9998418 17.1695073,97.2606013 17.1695073,93.8140823 C17.1695073,90.3381329 19.4880402,87.6280063 22.6726468,87.6280063" id="Fill-5" fill="#FEFEFE" sketch:type="MSShapeGroup"></path>
                    <path d="M30.9131316,98.2620253 L31.1925199,97.7908228 C31.2762464,97.6436709 31.499517,97.5844937 31.6951788,97.7613924 C31.9745671,97.9968354 33.1197291,98.9101266 34.6841236,98.9101266 C36.2764269,98.9101266 37.3657713,97.9674051 37.3657713,96.8186709 C37.3657713,95.4639241 36.1086739,94.9037975 34.2372824,94.1677215 C32.2539554,93.4310127 30.8014963,92.518038 30.8014963,90.6917722 C30.8014963,89.3955696 31.8908407,87.6281646 34.460553,87.6281646 C35.941221,87.6281646 37.0584742,88.1876582 37.6172508,88.5708861 C37.7847037,88.6886076 37.8408215,88.9243671 37.7288861,89.1303797 L37.5614331,89.4544304 C37.4494978,89.6607595 37.2262272,89.7196203 37.0305653,89.6018987 C36.7793859,89.425 35.6618327,88.7768987 34.460553,88.7768987 C32.7007967,88.7768987 32.0582936,89.8667722 32.0582936,90.6623418 C32.0582936,91.8405063 33.0639115,92.4003165 34.7120324,93.0186709 C36.8069947,93.8433544 38.6507775,94.5800633 38.6507775,96.7303797 C38.6507775,98.4977848 36.91893,100 34.6841236,100 C32.7845232,100 31.6393612,99.1753165 31.0247669,98.6743671 C30.9131316,98.5860759 30.8294051,98.4091772 30.9131316,98.2620253" id="Fill-7" fill="#FEFEFE" sketch:type="MSShapeGroup"></path>
                    <path d="M21.2873489,13.1796519 C18.4094392,13.1796519 16.4204105,14.875538 15.4469028,15.9018038 C13.9236212,14.1169937 12.2730995,13.1796519 9.90295031,13.1796519 C7.1945942,13.1796519 5.24757876,14.7862975 4.18974437,15.9464241 L3.470417,14.1169937 C3.34317678,13.8489557 3.04728324,13.6258544 2.75108962,13.6258544 L0.804074167,13.6258544 C0.33862704,13.6258544 0.000120037944,13.9828165 0.000120037944,14.4736392 L0.000120037944,30.629019 C0.000120037944,31.075538 0.33862704,31.4771203 0.804074167,31.4771203 L5.24757876,31.4771203 C5.6710126,31.4771203 6.05183298,31.075538 6.05183298,30.629019 L6.05183298,22.0606646 C6.05183298,20.2309177 7.32153433,18.9366139 9.01436943,18.9366139 C10.9187714,18.9366139 11.6807123,20.4986392 11.6807123,22.2834494 L11.6807123,30.629019 C11.6807123,31.075538 12.0189192,31.4771203 12.4846664,31.4771203 L16.5473506,31.4771203 C17.0130978,31.4771203 17.3516048,31.075538 17.3516048,30.629019 L17.3516048,21.9711076 C17.3516048,20.2309177 18.7056328,18.9366139 20.1869011,18.9366139 C22.1336164,18.9366139 23.0224974,20.4986392 23.0224974,22.2834494 L23.0224974,30.629019 C23.0224974,31.075538 23.3610044,31.4771203 23.8264515,31.4771203 L28.3125696,31.4771203 C28.7780167,31.4771203 29.1168238,31.075538 29.1168238,30.629019 L29.1168238,22.5514873 C29.1168238,17.4638291 26.5351077,13.1796519 21.2873489,13.1796519" id="Fill-9" fill="#FEFEFE" sketch:type="MSShapeGroup"></path>
                    <path d="M38.7204895,13.6257278 L34.065118,13.6257278 C33.6419842,13.6257278 33.2611638,13.9826899 33.2611638,14.4738291 L33.2611638,30.6288924 C33.2611638,31.0754114 33.6419842,31.4769937 34.065118,31.4769937 L38.7204895,31.4769937 C39.1436233,31.4769937 39.5244436,31.0754114 39.5244436,30.6288924 L39.5244436,14.4738291 C39.5244436,13.9826899 39.1436233,13.6257278 38.7204895,13.6257278" id="Fill-11" fill="#FEFEFE" sketch:type="MSShapeGroup"></path>
                    <path d="M36.3505804,1.13 C34.4884918,1.13 33.0069235,2.73664557 33.0069235,4.70025316 C33.0069235,6.66386076 34.4884918,8.22588608 36.3505804,8.22588608 C38.212669,8.22588608 39.7362506,6.66386076 39.7362506,4.70025316 C39.7362506,2.73664557 38.212669,1.13 36.3505804,1.13" id="Fill-13" fill="#FEFEFE" sketch:type="MSShapeGroup"></path>
                    <g id="Group-17">
                        <mask id="mask-8" sketch:name="Clip 16" fill="white">
                            <use xlink:href="#path-7"></use>
                        </mask>
                        <g id="Clip-16"></g>
                        <path d="M73.6741283,26.1662342 C71.7271129,26.1662342 70.2461447,24.5595886 70.2461447,22.5067405 C70.2461447,20.4985127 71.7271129,18.9364873 73.6741283,18.9364873 C75.6205436,18.9364873 77.0594984,20.4985127 77.0594984,22.5067405 C77.0594984,24.5595886 75.6205436,26.1662342 73.6741283,26.1662342 M81.8841235,0.237436709 L77.1867387,0.237436709 C76.7633048,0.237436709 76.3824844,0.639018987 76.3824844,1.08553797 L76.3824844,14.0276266 C75.8744238,13.7149684 74.308829,13.1795253 72.8698741,13.1795253 C68.3417428,13.1795253 64.4483121,16.2589557 64.4483121,22.5513608 C64.4483121,27.6836392 68.0455491,31.9235127 72.8278608,31.9235127 C74.324734,31.9235127 75.5290147,31.4675 76.4407028,30.9241456 C76.5616411,31.2377532 76.8605355,31.4769937 77.1867387,31.4769937 L79.8950948,31.4769937 L81.8841235,31.4769937 C82.3075573,31.4769937 82.6883777,31.0754114 82.6883777,30.6288924 L82.6883777,25.8580063 L82.6883777,1.08553797 C82.6883777,0.639018987 82.3075573,0.237436709 81.8841235,0.237436709" id="Fill-15" fill="#FEFEFE" sketch:type="MSShapeGroup" mask="url(#mask-8)"></path>
                    </g>
                    <g id="Group-20">
                        <mask id="mask-10" sketch:name="Clip 19" fill="white">
                            <use xlink:href="#path-9"></use>
                        </mask>
                        <g id="Clip-19"></g>
                        <path d="M92.7160775,0.237563291 L88.0613061,0.237563291 C87.6375722,0.237563291 87.2570519,0.63914557 87.2570519,1.08566456 L87.2570519,30.629019 C87.2570519,31.075538 87.6375722,31.4771203 88.0613061,31.4771203 L92.7160775,31.4771203 C93.1395113,31.4771203 93.5200316,31.075538 93.5200316,30.629019 L93.5200316,1.08566456 C93.5200316,0.63914557 93.1395113,0.237563291 92.7160775,0.237563291" id="Fill-18" fill="#FEFEFE" sketch:type="MSShapeGroup" mask="url(#mask-10)"></path>
                    </g>
                    <g id="Group-23">
                        <mask id="mask-12" sketch:name="Clip 22" fill="white">
                            <use xlink:href="#path-11"></use>
                        </mask>
                        <g id="Clip-22"></g>
                        <path d="M103.125888,20.0522785 C103.295442,18.8921519 104.268649,17.9548101 105.41141,17.9548101 C106.511558,17.9548101 107.569393,18.8921519 107.65462,20.0522785 L103.125888,20.0522785 Z M105.580664,13.1794937 C100.586785,13.1794937 96.8205949,17.5082911 96.8205949,22.5513291 C96.8205949,27.6836076 100.629099,31.923481 105.665291,31.923481 C108.331033,31.923481 110.447302,30.941519 111.928871,29.3794937 C112.309391,28.9779114 112.224764,28.4421519 111.971184,28.0851899 L109.854915,25.4076582 C109.600735,25.0953165 109.177601,25.0953165 108.79648,25.4076582 C108.120067,25.9431013 106.892379,26.4788608 105.834544,26.4788608 C103.633949,26.4788608 102.702754,24.738038 102.575514,23.5332911 L112.732825,23.5332911 C113.113345,23.5332911 113.494466,23.2206329 113.537079,22.7747468 C113.579092,22.4620886 113.621406,21.8820253 113.621406,21.5696835 C113.621406,16.6605063 109.897529,13.1794937 105.580664,13.1794937 L105.580664,13.1794937 Z" id="Fill-21" fill="#FEFEFE" sketch:type="MSShapeGroup" mask="url(#mask-12)"></path>
                    </g>
                    <g id="Group-26">
                        <mask id="mask-14" sketch:name="Clip 25" fill="white">
                            <use xlink:href="#path-13"></use>
                        </mask>
                        <g id="Clip-25"></g>
                        <path d="M52.0926264,26.1662342 C50.145611,26.1662342 48.6646429,24.5595886 48.6646429,22.5067405 C48.6646429,20.4985127 50.145611,18.9364873 52.0926264,18.9364873 C54.0393418,18.9364873 55.4782966,20.4985127 55.4782966,22.5067405 C55.4782966,24.5595886 54.0393418,26.1662342 52.0926264,26.1662342 M60.3026216,0.237436709 L55.6052368,0.237436709 C55.1818029,0.237436709 54.8012826,0.639018987 54.8012826,1.08553797 L54.8012826,5.85674051 L54.8012826,14.0276266 C54.293222,13.7149684 52.7276272,13.1795253 51.2886723,13.1795253 C46.7602409,13.1795253 42.8668102,16.2589557 42.8668102,22.5513608 C42.8668102,27.6836392 46.4640472,31.9235127 51.2463589,31.9235127 C52.7432321,31.9235127 53.9475128,31.4675 54.8592009,30.9241456 C54.9801392,31.2377532 55.2790337,31.4769937 55.6052368,31.4769937 L58.313893,31.4769937 L60.3026216,31.4769937 C60.7260555,31.4769937 61.1068758,31.0754114 61.1068758,30.6288924 L61.1068758,25.8580063 L61.1068758,5.85674051 L61.1068758,1.08553797 C61.1068758,0.639018987 60.7260555,0.237436709 60.3026216,0.237436709" id="Fill-24" fill="#FEFEFE" sketch:type="MSShapeGroup" mask="url(#mask-14)"></path>
                    </g>
                    <path d="M21.2873489,49.2396835 C18.4094392,49.2396835 16.4204105,50.9355696 15.4469028,51.9618354 C13.9236212,50.1770253 12.2730995,49.2396835 9.90295031,49.2396835 C7.1945942,49.2396835 5.24757876,50.8463291 4.18974437,52.0064557 L3.470417,50.1770253 C3.34317678,49.9089873 3.04728324,49.6858861 2.75108962,49.6858861 L0.804074167,49.6858861 C0.33862704,49.6858861 0.000120037944,50.0428481 0.000120037944,50.5336709 L0.000120037944,66.6890506 C0.000120037944,67.1355696 0.33862704,67.5371519 0.804074167,67.5371519 L5.24757876,67.5371519 C5.6710126,67.5371519 6.05183298,67.1355696 6.05183298,66.6890506 L6.05183298,58.1206962 C6.05183298,56.2909494 7.32153433,54.9966456 9.01436943,54.9966456 C10.9187714,54.9966456 11.6807123,56.5586709 11.6807123,58.343481 L11.6807123,66.6890506 C11.6807123,67.1355696 12.0189192,67.5371519 12.4846664,67.5371519 L16.5473506,67.5371519 C17.0130978,67.5371519 17.3516048,67.1355696 17.3516048,66.6890506 L17.3516048,58.0311392 C17.3516048,56.2909494 18.7056328,54.9966456 20.1869011,54.9966456 C22.1336164,54.9966456 23.0224974,56.5586709 23.0224974,58.343481 L23.0224974,66.6890506 C23.0224974,67.1355696 23.3610044,67.5371519 23.8264515,67.5371519 L28.3125696,67.5371519 C28.7780167,67.5371519 29.1168238,67.1355696 29.1168238,66.6890506 L29.1168238,58.611519 C29.1168238,53.5238608 26.5351077,49.2396835 21.2873489,49.2396835" id="Fill-27" fill="#FEFEFE" sketch:type="MSShapeGroup"></path>
                    <path d="M38.7204895,49.6857595 L34.065118,49.6857595 C33.6419842,49.6857595 33.2611638,50.0427215 33.2611638,50.5338608 L33.2611638,66.6889241 C33.2611638,67.135443 33.6419842,67.5370253 34.065118,67.5370253 L38.7204895,67.5370253 C39.1436233,67.5370253 39.5244436,67.135443 39.5244436,66.6889241 L39.5244436,50.5338608 C39.5244436,50.0427215 39.1436233,49.6857595 38.7204895,49.6857595" id="Fill-29" fill="#FEFEFE" sketch:type="MSShapeGroup"></path>
                    <path d="M36.3505804,37.1900316 C34.4884918,37.1900316 33.0069235,38.7966772 33.0069235,40.7602848 C33.0069235,42.7238924 34.4884918,44.2859177 36.3505804,44.2859177 C38.212669,44.2859177 39.7362506,42.7238924 39.7362506,40.7602848 C39.7362506,38.7966772 38.212669,37.1900316 36.3505804,37.1900316" id="Fill-31" fill="#FEFEFE" sketch:type="MSShapeGroup"></path>
                    <path d="M73.6741283,62.2262658 C71.7271129,62.2262658 70.2461447,60.6196203 70.2461447,58.5667722 C70.2461447,56.5585443 71.7271129,54.996519 73.6741283,54.996519 C75.6205436,54.996519 77.0594984,56.5585443 77.0594984,58.5667722 C77.0594984,60.6196203 75.6205436,62.2262658 73.6741283,62.2262658 M81.8841235,36.2974684 L77.1867387,36.2974684 C76.7633048,36.2974684 76.3824844,36.6990506 76.3824844,37.1455696 L76.3824844,50.0876582 C75.8744238,49.775 74.308829,49.239557 72.8698741,49.239557 C68.3417428,49.239557 64.4483121,52.3189873 64.4483121,58.6113924 C64.4483121,63.7436709 68.0455491,67.9835443 72.8278608,67.9835443 C74.324734,67.9835443 75.5290147,67.5275316 76.4407028,66.9841772 C76.5616411,67.2977848 76.8605355,67.5370253 77.1867387,67.5370253 L79.8950948,67.5370253 L81.8841235,67.5370253 C82.3075573,67.5370253 82.6883777,67.135443 82.6883777,66.6889241 L82.6883777,61.918038 L82.6883777,37.1455696 C82.6883777,36.6990506 82.3075573,36.2974684 81.8841235,36.2974684" id="Fill-33" fill="#FEFEFE" sketch:type="MSShapeGroup"></path>
                    <path d="M92.7160775,36.2976266 L88.0613061,36.2976266 C87.6375722,36.2976266 87.2570519,36.6992089 87.2570519,37.1457278 L87.2570519,66.6890823 C87.2570519,67.1356013 87.6375722,67.5371835 88.0613061,67.5371835 L92.7160775,67.5371835 C93.1395113,67.5371835 93.5200316,67.1356013 93.5200316,66.6890823 L93.5200316,37.1457278 C93.5200316,36.6992089 93.1395113,36.2976266 92.7160775,36.2976266" id="Fill-35" fill="#FEFEFE" sketch:type="MSShapeGroup"></path>
                    <g id="Group-39">
                        <mask id="mask-16" sketch:name="Clip 38" fill="white">
                            <use xlink:href="#path-15"></use>
                        </mask>
                        <g id="Clip-38"></g>
                        <path d="M103.125888,56.1123101 C103.295442,54.9521835 104.268649,54.0148418 105.41141,54.0148418 C106.511558,54.0148418 107.569393,54.9521835 107.65462,56.1123101 L103.125888,56.1123101 Z M105.580664,49.2395253 C100.586785,49.2395253 96.8205949,53.5683228 96.8205949,58.6113608 C96.8205949,63.7436392 100.629099,67.9835127 105.665291,67.9835127 C108.331033,67.9835127 110.447302,67.0015506 111.928871,65.4395253 C112.309391,65.037943 112.224764,64.5021835 111.971184,64.1452215 L109.854915,61.4676899 C109.600735,61.1553481 109.177601,61.1553481 108.79648,61.4676899 C108.120067,62.0031329 106.892379,62.5388924 105.834544,62.5388924 C103.633949,62.5388924 102.702754,60.7980696 102.575514,59.5933228 L112.732825,59.5933228 C113.113345,59.5933228 113.494466,59.2806646 113.537079,58.8347785 C113.579092,58.5221203 113.621406,57.942057 113.621406,57.6297152 C113.621406,52.720538 109.897529,49.2395253 105.580664,49.2395253 L105.580664,49.2395253 Z" id="Fill-37" fill="#FEFEFE" sketch:type="MSShapeGroup" mask="url(#mask-16)"></path>
                    </g>
                    <path d="M52.0926264,62.2262658 C50.145611,62.2262658 48.6646429,60.6196203 48.6646429,58.5667722 C48.6646429,56.5585443 50.145611,54.996519 52.0926264,54.996519 C54.0393418,54.996519 55.4782966,56.5585443 55.4782966,58.5667722 C55.4782966,60.6196203 54.0393418,62.2262658 52.0926264,62.2262658 M60.3026216,36.2974684 L55.6052368,36.2974684 C55.1818029,36.2974684 54.8012826,36.6990506 54.8012826,37.1455696 L54.8012826,41.9167722 L54.8012826,50.0876582 C54.293222,49.775 52.7276272,49.239557 51.2886723,49.239557 C46.7602409,49.239557 42.8668102,52.3189873 42.8668102,58.6113924 C42.8668102,63.7436709 46.4640472,67.9835443 51.2463589,67.9835443 C52.7432321,67.9835443 53.9475128,67.5275316 54.8592009,66.9841772 C54.9801392,67.2977848 55.2790337,67.5370253 55.6052368,67.5370253 L58.313893,67.5370253 L60.3026216,67.5370253 C60.7260555,67.5370253 61.1068758,67.135443 61.1068758,66.6889241 L61.1068758,61.918038 L61.1068758,41.9167722 L61.1068758,37.1455696 C61.1068758,36.6990506 60.7260555,36.2974684 60.3026216,36.2974684" id="Fill-40" fill="#FEFEFE" sketch:type="MSShapeGroup"></path>
                </g>
            </g>
        </g>
    </g>
</svg>