<?xml version="1.0" encoding="UTF-8" standalone="no"?>
<svg width="354px" height="415px" viewBox="0 0 354 415" version="1.1" xmlns="http://www.w3.org/2000/svg" xmlns:xlink="http://www.w3.org/1999/xlink" xmlns:sketch="http://www.bohemiancoding.com/sketch/ns">
    <!-- Generator: Sketch 3.4.4 (17249) - http://www.bohemiancoding.com/sketch -->
    <title>Page 1</title>
    <desc>Created with Sketch.</desc>
    <defs>
        <path id="path-1" d="M0.224,11.149 L79.767,49.046 L87.529,0.767"></path>
        <path id="path-3" d="M0.224,11.149 L79.767,49.046 L87.529,0.767"></path>
        <path id="path-5" d="M0.224,11.149 L79.767,49.046 L87.529,0.767"></path>
        <path id="path-7" d="M0.224,11.149 L79.767,49.046 L87.529,0.767"></path>
        <path id="path-9" d="M0.224,11.149 L79.767,49.046 L87.529,0.767"></path>
        <path id="path-11" d="M0.224,11.149 L79.767,49.046 L87.529,0.767"></path>
        <path id="path-13" d="M0.409,53.733 L51.676,72.102 L48.372,0.599 L0.409,53.733 Z"></path>
        <path id="path-15" d="M0.409,53.733 L51.676,72.102 L48.372,0.599"></path>
        <path id="path-17" d="M0.409,53.733 L51.676,72.102 L48.372,0.599"></path>
        <path id="path-19" d="M0.409,53.733 L51.676,72.102 L48.372,0.599"></path>
        <path id="path-21" d="M0.409,53.733 L51.676,72.102 L48.372,0.599"></path>
        <path id="path-23" d="M0.409,53.733 L51.676,72.102 L48.372,0.599"></path>
        <path id="path-25" d="M0.409,53.733 L51.676,72.102 L48.372,0.599"></path>
        <path id="path-27" d="M0,0.324 L353.196,0.324 L353.196,415 L0,415"></path>
    </defs>
    <g id="Page-1" stroke="none" stroke-width="1" fill="none" fill-rule="evenodd" sketch:type="MSPage">
        <g id="Desktop-HD" sketch:type="MSArtboardGroup" transform="translate(-831.000000, -875.000000)">
            <g id="Group" sketch:type="MSLayerGroup" transform="translate(-311.000000, 684.000000)">
                <g id="Page-1" transform="translate(1142.000000, 191.000000)">
                    <path d="M105.2247,366.1485 L184.7667,404.0465 L192.5287,355.7675 L105.2247,366.1485 Z" id="Fill-1" fill="#E0E0E0" sketch:type="MSShapeGroup"></path>
                    <path d="M105.2244,366.1489 L184.7674,404.0459 L192.5294,355.7669 L105.2244,366.1489 Z" id="Fill-2" fill="#E0E0E0" sketch:type="MSShapeGroup"></path>
                    <g id="Group-21" transform="translate(105.000000, 355.000000)">
                        <g id="Group-5">
                            <mask id="mask-2" sketch:name="Clip 4" fill="white">
                                <use xlink:href="#path-1"></use>
                            </mask>
                            <g id="Clip-4"></g>
                            <path d="M60.9347,39.7299 C56.5517,40.3509 51.9807,39.4499 50.7607,37.7389 C49.5617,36.0539 52.0857,34.2299 56.3617,33.6429 C60.6157,33.0589 65.0897,33.9069 66.3967,35.5589 C67.7217,37.2349 65.2957,39.1119 60.9347,39.7299" id="Fill-3" fill="#E0E0E0" sketch:type="MSShapeGroup" mask="url(#mask-2)"></path>
                        </g>
                        <g id="Group-8">
                            <mask id="mask-4" sketch:name="Clip 7" fill="white">
                                <use xlink:href="#path-3"></use>
                            </mask>
                            <g id="Clip-7"></g>
                            <path d="M81.675,33.4959 C77.471,34.0819 72.945,33.2309 71.603,31.6149 C70.283,30.0219 72.57,28.2959 76.676,27.7399 C80.762,27.1869 85.19,27.9899 86.61,29.5529 C88.049,31.1389 85.859,32.9129 81.675,33.4959" id="Fill-6" fill="#E0E0E0" sketch:type="MSShapeGroup" mask="url(#mask-4)"></path>
                        </g>
                        <g id="Group-11">
                            <mask id="mask-6" sketch:name="Clip 10" fill="white">
                                <use xlink:href="#path-5"></use>
                            </mask>
                            <g id="Clip-10"></g>
                            <path d="M58.279,29.7979 C54.084,30.3639 49.726,29.5419 48.577,27.9799 C47.446,26.4399 49.877,24.7709 53.973,24.2339 C58.05,23.6999 62.32,24.4759 63.549,25.9869 C64.795,27.5199 62.453,29.2349 58.279,29.7979" id="Fill-9" fill="#E0E0E0" sketch:type="MSShapeGroup" mask="url(#mask-6)"></path>
                        </g>
                        <g id="Group-14">
                            <mask id="mask-8" sketch:name="Clip 13" fill="white">
                                <use xlink:href="#path-7"></use>
                            </mask>
                            <g id="Clip-13"></g>
                            <path d="M81.9804,20.5399 C78.0284,21.0579 73.7714,20.3059 72.5024,18.8759 C71.2534,17.4649 73.4004,15.9359 77.2644,15.4429 C81.1114,14.9529 85.2834,15.6639 86.6204,17.0499 C87.9744,18.4549 85.9144,20.0239 81.9804,20.5399" id="Fill-12" fill="#E0E0E0" sketch:type="MSShapeGroup" mask="url(#mask-8)"></path>
                        </g>
                        <g id="Group-17">
                            <mask id="mask-10" sketch:name="Clip 16" fill="white">
                                <use xlink:href="#path-9"></use>
                            </mask>
                            <g id="Clip-16"></g>
                            <path d="M56.239,20.1032 C52.23,20.6202 48.077,19.8702 46.991,18.4462 C45.922,17.0412 48.256,15.5182 52.175,15.0282 C56.076,14.5392 60.149,15.2492 61.309,16.6282 C62.483,18.0262 60.229,19.5892 56.239,20.1032" id="Fill-15" fill="#E0E0E0" sketch:type="MSShapeGroup" mask="url(#mask-10)"></path>
                        </g>
                        <g id="Group-20">
                            <mask id="mask-12" sketch:name="Clip 19" fill="white">
                                <use xlink:href="#path-11"></use>
                            </mask>
                            <g id="Clip-19"></g>
                            <path d="M30.7578,25.237 C26.5818,25.78 22.4198,24.992 21.4908,23.496 C20.5768,22.021 23.1668,20.421 27.2448,19.906 C31.3038,19.393 35.3868,20.138 36.3988,21.586 C37.4238,23.055 34.9138,24.697 30.7578,25.237" id="Fill-18" fill="#E0E0E0" sketch:type="MSShapeGroup" mask="url(#mask-12)"></path>
                        </g>
                    </g>
                    <g id="Group-60" transform="translate(0.000000, 286.000000)" fill="#E0E0E0" sketch:type="MSShapeGroup">
                        <path d="M183.5036,129 C170.0776,129 159.9116,124.305 160.7636,118.759 C161.5766,113.465 172.2156,109.345 184.5586,109.345 C196.9006,109.345 207.0976,113.465 207.3426,118.759 C207.5996,124.305 196.9296,129 183.5036,129" id="Fill-22"></path>
                        <path d="M209.5323,70.3624 C209.5323,70.3624 228.0263,69.1784 237.6083,68.4964 C247.1203,67.8204 249.7823,65.4904 240.9753,64.0014 C232.3173,62.5364 210.7643,59.4474 210.7643,59.4474 C210.7643,59.4474 207.8173,58.3754 204.4693,64.8184 C201.6973,70.1484 200.0513,70.5644 209.5323,70.3624" id="Fill-24"></path>
                        <path d="M240.6626,23.0897 C240.6626,23.0897 245.7286,25.8647 248.5936,27.3597 C251.5226,28.8877 255.0086,29.5337 258.1686,27.8297 C260.6336,26.5007 264.5056,22.8777 264.5056,22.8777 C264.5056,22.8777 263.6926,22.3207 250.2576,22.0987 C239.8896,21.9257 238.8896,21.7037 240.6626,23.0897" id="Fill-26"></path>
                        <path d="M275.0969,24.1478 C275.0969,24.1478 278.3659,27.1348 280.2649,28.7548 C282.2179,30.4138 285.3409,31.2498 289.7359,29.7768 C293.1759,28.6258 299.6569,25.3038 299.6569,25.3038 C299.6569,25.3038 299.2009,24.7108 285.5369,23.7278 C275.0969,22.9748 274.2359,22.7018 275.0969,24.1478" id="Fill-28"></path>
                        <path d="M310.6664,27.2518 C310.6664,27.2518 312.0974,30.0168 312.9894,31.5198 C313.9014,33.0548 316.3324,33.9318 321.1684,32.8688 C324.9764,32.0318 332.8354,29.4348 332.8354,29.4348 C332.8354,29.4348 332.7354,28.8878 320.5464,27.3738 C311.2844,26.2218 310.6314,25.9418 310.6664,27.2518" id="Fill-30"></path>
                        <path d="M214.9801,56.573 C214.9801,56.573 232.7441,56.099 240.9321,54.976 C249.6321,53.783 250.9191,52.107 240.3761,50.57 C232.2611,49.385 215.8271,47.185 215.8271,47.185 C215.8271,47.185 213.0611,46.258 210.1371,51.816 C207.7271,56.389 206.2131,56.748 214.9801,56.573" id="Fill-32"></path>
                        <path d="M211.9688,28.6108 C211.9688,28.6108 226.8418,28.2788 233.7338,27.4918 C241.0728,26.6538 242.2258,25.4728 233.4228,24.3858 C226.6298,23.5468 212.8238,21.9828 212.8238,21.9828 C212.8238,21.9828 210.5008,21.3218 207.9698,25.2678 C205.9038,28.4818 204.6338,28.7328 211.9688,28.6108" id="Fill-34"></path>
                        <path d="M218.1557,45.7431 C218.1557,45.7431 231.8027,45.4021 238.1077,44.5911 C244.8297,43.7271 251.1297,42.4011 242.9747,41.2811 C236.6717,40.4161 218.6797,38.9021 218.6797,38.9021 C218.6797,38.9021 216.5087,38.2161 214.3387,42.2981 C212.5777,45.6111 211.4237,45.8681 218.1557,45.7431" id="Fill-36"></path>
                        <path d="M204.0834,72.0814 C204.0834,72.0814 129.6184,86.6594 46.0544,89.2794 C33.3454,93.4504 20.3234,98.2344 8.6084,93.8764 C-2.6236,89.6904 -3.8266,63.5834 10.7694,57.7024 C24.4274,52.1974 115.3794,44.7564 115.3794,44.7564 C115.3794,44.7564 107.3534,27.8204 108.6964,17.6494 C109.8564,8.8364 115.4114,1.3894 115.4114,1.3894 C115.4114,1.3894 116.9494,0.0844 128.7674,0.1484 C140.5964,0.2134 140.9064,1.5214 140.9064,1.5214 L139.7734,5.2344 L198.1274,5.2344 L198.7104,1.5214 C198.7104,1.5214 199.9304,-0.0486 211.4834,0.1474 C223.0794,0.3434 223.0484,1.5884 223.0484,1.5884 L221.8654,8.0934 C228.8354,7.9454 256.9504,8.1674 280.4004,11.2764 C305.0684,14.5474 329.5874,20.9044 344.1634,25.2774 C359.7114,29.9424 355.9834,34.1654 326.7454,28.7214 C299.5684,23.6624 243.8714,21.4464 219.5504,22.0864 C220.0234,24.8934 218.9864,61.4264 204.0834,72.0814" id="Fill-38"></path>
                        <path d="M115.5374,37.1579 C115.5374,37.1579 81.1414,35.7019 77.5574,32.5539 C74.1214,29.5329 83.2674,26.9299 93.3774,27.3249 C103.5434,27.7199 119.4494,29.8399 119.4494,29.8399 L115.5374,37.1579 Z" id="Fill-40"></path>
                        <path d="M212.3525,38.8722 L211.4545,30.1482 C211.4545,30.1482 219.5935,28.2692 235.7855,27.7702 C251.8575,27.2732 259.7035,32.4462 249.5895,34.3822 C239.2085,36.3702 212.3525,38.8722 212.3525,38.8722" id="Fill-42"></path>
                        <path d="M124.2967,16.7422 C121.8457,21.1912 135.3807,25.0232 154.6837,25.0232 C173.9897,25.0232 189.8277,21.1912 190.0487,16.7422 C190.2557,12.5762 176.5207,9.3882 159.3797,9.3882 C142.2407,9.3882 126.5917,12.5762 124.2967,16.7422" id="Fill-44"></path>
                        <path d="M133.3265,73.9807 C132.4405,76.6217 138.0665,78.8177 145.9195,78.8177 C153.7695,78.8177 160.5485,76.6217 161.0465,73.9807 C161.5305,71.4147 155.8595,69.3807 148.3935,69.3807 C140.9235,69.3807 134.1875,71.4147 133.3265,73.9807" id="Fill-46"></path>
                        <path d="M145.5083,72.5949 C145.1683,73.8389 147.8913,74.8589 151.5943,74.8589 C155.2993,74.8589 158.5093,73.8389 158.7603,72.5949 C159.0083,71.3669 156.2753,70.3829 152.6583,70.3829 C149.0423,70.3829 145.8433,71.3669 145.5083,72.5949" id="Fill-48"></path>
                        <path d="M106.8335,76.763 C105.7815,79.004 110.2185,80.859 116.7645,80.859 C123.3205,80.859 129.2675,79.004 130.0475,76.763 C130.8095,74.573 126.3305,72.834 120.0435,72.834 C113.7665,72.834 107.8615,74.573 106.8335,76.763" id="Fill-50"></path>
                        <path d="M117.2108,75.5804 C116.7678,76.6404 118.9198,77.5064 122.0228,77.5064 C125.1188,77.5064 127.9448,76.6404 128.3258,75.5804 C128.7008,74.5344 126.5388,73.6924 123.5048,73.6924 C120.4628,73.6924 117.6478,74.5344 117.2108,75.5804" id="Fill-52"></path>
                        <path d="M28.3196,66.1891 C27.5526,67.0121 28.9746,67.6841 31.5066,67.6841 C34.0376,67.6841 36.6786,67.0121 37.4036,66.1891 C38.1226,65.3741 36.6836,64.7181 34.1946,64.7181 C31.7036,64.7181 29.0786,65.3741 28.3196,66.1891" id="Fill-54"></path>
                        <path d="M8.6267,66.1891 C7.7707,67.0121 9.1207,67.6841 11.6547,67.6841 C14.1787,67.6841 16.8957,67.0121 17.7107,66.1891 C18.5187,65.3741 17.1487,64.7181 14.6657,64.7181 C12.1727,64.7181 9.4747,65.3741 8.6267,66.1891" id="Fill-56"></path>
                        <path d="M121.3589,56.6726 C123.1319,57.3826 122.4989,58.4856 119.9089,59.1486 C117.3059,59.8136 113.7309,59.7646 111.9519,59.0416 C111.8569,59.0036 102.2559,55.1756 81.1559,52.6436 C67.6059,51.0196 51.2879,51.6256 50.9709,51.6376 C49.7169,51.6876 48.6219,51.6066 47.7799,51.4406 C56.2619,50.4266 65.2579,49.4566 73.8139,48.5896 C78.0839,48.7806 82.5909,49.0946 86.9489,49.6066 C110.2649,52.3396 120.9049,56.4946 121.3589,56.6726" id="Fill-58"></path>
                    </g>
                    <g id="Group-82" transform="translate(140.000000, 12.000000)">
                        <g id="Group-63">
                            <mask id="mask-14" sketch:name="Clip 62" fill="white">
                                <use xlink:href="#path-13"></use>
                            </mask>
                            <g id="Clip-62"></g>
                            <path d="M0.4094,53.7321 L51.6764,72.1011 L48.3724,0.5991 L0.4094,53.7321 Z" id="Fill-61" fill="#042A46" sketch:type="MSShapeGroup" mask="url(#mask-14)"></path>
                        </g>
                        <g id="Group-66">
                            <mask id="mask-16" sketch:name="Clip 65" fill="white">
                                <use xlink:href="#path-15"></use>
                            </mask>
                            <g id="Clip-65"></g>
                            <path d="M38.4621,11.9879 C36.2621,11.1999 33.8401,12.3449 33.0511,14.5469 C32.2631,16.7479 33.4071,19.1699 35.6071,19.9569 C37.8091,20.7459 40.2311,19.6019 41.0201,17.4009 C41.8081,15.2009 40.6631,12.7769 38.4621,11.9879" id="Fill-64" fill="#83BC32" sketch:type="MSShapeGroup" mask="url(#mask-16)"></path>
                        </g>
                        <g id="Group-69">
                            <mask id="mask-18" sketch:name="Clip 68" fill="white">
                                <use xlink:href="#path-17"></use>
                            </mask>
                            <g id="Clip-68"></g>
                            <path d="M48.9631,20.1549 C46.7631,19.3669 44.3411,20.5119 43.5521,22.7129 C42.7641,24.9139 43.9081,27.3359 46.1091,28.1239 C48.3101,28.9119 50.7321,27.7689 51.5211,25.5679 C52.3091,23.3669 51.1641,20.9429 48.9631,20.1549" id="Fill-67" fill="#83BC32" sketch:type="MSShapeGroup" mask="url(#mask-18)"></path>
                        </g>
                        <g id="Group-72">
                            <mask id="mask-20" sketch:name="Clip 71" fill="white">
                                <use xlink:href="#path-19"></use>
                            </mask>
                            <g id="Clip-71"></g>
                            <path d="M36.3029,25.2252 C34.1029,24.4372 31.6809,25.5822 30.8919,27.7832 C30.1039,29.9842 31.2479,32.4062 33.4489,33.1942 C35.6499,33.9822 38.0719,32.8392 38.8609,30.6382 C39.6489,28.4372 38.5039,26.0132 36.3029,25.2252" id="Fill-70" fill="#83BC32" sketch:type="MSShapeGroup" mask="url(#mask-20)"></path>
                        </g>
                        <g id="Group-75">
                            <mask id="mask-22" sketch:name="Clip 74" fill="white">
                                <use xlink:href="#path-21"></use>
                            </mask>
                            <g id="Clip-74"></g>
                            <path d="M48.8029,38.7252 C46.6029,37.9372 44.1809,39.0822 43.3919,41.2832 C42.6039,43.4842 43.7479,45.9062 45.9489,46.6942 C48.1499,47.4822 50.5719,46.3392 51.3609,44.1382 C52.1489,41.9372 51.0039,39.5132 48.8029,38.7252" id="Fill-73" fill="#83BC32" sketch:type="MSShapeGroup" mask="url(#mask-22)"></path>
                        </g>
                        <g id="Group-78">
                            <mask id="mask-24" sketch:name="Clip 77" fill="white">
                                <use xlink:href="#path-23"></use>
                            </mask>
                            <g id="Clip-77"></g>
                            <path d="M34.3029,39.3922 C32.1029,38.6032 29.6809,39.7492 28.8919,41.9502 C28.1039,44.1512 29.2479,46.5732 31.4489,47.3612 C33.6499,48.1502 36.0719,47.0052 36.8609,44.8042 C37.6489,42.6052 36.5039,40.1812 34.3029,39.3922" id="Fill-76" fill="#83BC32" sketch:type="MSShapeGroup" mask="url(#mask-24)"></path>
                        </g>
                        <g id="Group-81">
                            <mask id="mask-26" sketch:name="Clip 80" fill="white">
                                <use xlink:href="#path-25"></use>
                            </mask>
                            <g id="Clip-80"></g>
                            <path d="M20.8029,31.7262 C18.6029,30.9372 16.1809,32.0832 15.3919,34.2832 C14.6039,36.4842 15.7479,38.9062 17.9489,39.6952 C20.1499,40.4832 22.5719,39.3392 23.3609,37.1382 C24.1489,34.9382 23.0039,32.5142 20.8029,31.7262" id="Fill-79" fill="#83BC32" sketch:type="MSShapeGroup" mask="url(#mask-26)"></path>
                        </g>
                    </g>
                    <g id="Group-122">
                        <g id="Group-85">
                            <mask id="mask-28" sketch:name="Clip 84" fill="white">
                                <use xlink:href="#path-27"></use>
                            </mask>
                            <g id="Clip-84"></g>
                            <path d="M188.0393,0.3239 C181.7213,0.3239 176.5983,5.4469 176.5983,11.7649 C176.5983,18.0839 181.7213,23.2069 188.0393,23.2069 C194.3573,23.2069 199.4803,18.0839 199.4803,11.7649 C199.4803,5.4469 194.3573,0.3239 188.0393,0.3239" id="Fill-83" fill="#83BC32" sketch:type="MSShapeGroup" mask="url(#mask-28)"></path>
                        </g>
                        <path d="M202.2248,82.9928 C202.2248,82.9928 213.8158,85.2058 219.8898,86.4938 C225.9638,87.7798 228.0708,92.2868 222.6988,95.2268 C217.3298,98.1698 203.5408,104.5378 203.5408,104.5378 C203.5408,104.5378 201.6458,106.7988 199.2378,93.6068 C197.3708,83.3898 196.3448,82.6188 202.2248,82.9928" id="Fill-86" fill="#17AA8F" sketch:type="MSShapeGroup"></path>
                        <path d="M230.9211,200.9684 C230.9211,200.9684 234.3311,191.8474 236.2231,187.0794 C238.1151,182.3104 240.6921,180.3264 243.7941,185.6014 C246.2661,189.8064 250.8701,201.6794 250.8701,201.6794 C250.8701,201.6794 250.4201,203.5604 239.2381,204.3164 C230.5851,204.9064 229.8031,205.6624 230.9211,200.9684" id="Fill-88" fill="#17AA8F" sketch:type="MSShapeGroup"></path>
                        <path d="M259.1066,197.4469 C259.1066,197.4469 260.3816,187.7899 261.1526,182.7209 C261.9296,177.6479 263.9976,175.1349 268.2016,179.5819 C271.5516,183.1219 278.7046,193.6599 278.7046,193.6599 C278.7046,193.6599 278.6896,195.5949 267.9606,198.8379 C259.6616,201.3549 259.0726,202.2739 259.1066,197.4469" id="Fill-90" fill="#042A46" sketch:type="MSShapeGroup"></path>
                        <path d="M286.4445,187.4205 C286.4445,187.4205 285.8135,178.8535 285.5695,174.3295 C285.3275,169.8085 286.6655,167.2655 291.0935,170.3515 C294.6265,172.8105 302.6975,180.6285 302.6975,180.6285 C302.6975,180.6285 303.0315,182.3095 294.3465,187.0365 C287.6235,190.6985 287.2765,191.5975 286.4445,187.4205" id="Fill-92" fill="#17AA8F" sketch:type="MSShapeGroup"></path>
                        <path d="M206.5227,110.6676 C206.5227,110.6676 218.4907,111.6986 224.1887,114.1646 C230.3267,116.8176 231.5757,120.6126 224.6037,124.1616 C219.1487,126.9406 207.8397,132.2106 207.8397,132.2106 C207.8397,132.2106 205.9467,134.4746 203.5387,121.2786 C201.6717,111.0676 200.6427,110.2886 206.5227,110.6676" id="Fill-94" fill="#042A46" sketch:type="MSShapeGroup"></path>
                        <path d="M206.5227,183.1676 C206.5227,183.1676 218.4907,184.1986 224.1887,186.6646 C230.3267,189.3176 231.5757,193.1126 224.6037,196.6616 C219.1487,199.4406 207.8397,204.7106 207.8397,204.7106 C207.8397,204.7106 205.9467,206.9746 203.5387,193.7786 C201.6717,183.5676 200.6427,182.7886 206.5227,183.1676" id="Fill-96" fill="#042A46" sketch:type="MSShapeGroup"></path>
                        <path d="M209.6281,135.7438 C209.6281,135.7438 219.4421,136.5898 224.1131,138.6128 C229.1461,140.7908 234.0431,144.1818 228.3301,147.0898 C223.8571,149.3648 210.7081,153.4088 210.7081,153.4088 C210.7081,153.4088 209.1531,155.2668 207.1781,144.4468 C205.6481,136.0698 204.8051,135.4348 209.6281,135.7438" id="Fill-98" fill="#17AA8F" sketch:type="MSShapeGroup"></path>
                        <path d="M198.8039,79.8297 C198.8039,79.8297 156.0469,55.1797 109.5449,51.1227 C104.2399,44.8767 99.2479,38.0137 90.8199,44.2517 C82.3959,50.4957 65.2269,96.0617 70.5339,108.2337 C75.8389,120.4057 135.7609,138.1977 135.7609,138.1977 C135.7609,138.1977 122.3409,185.6327 117.9729,219.9627 C113.6029,254.2927 113.9149,287.3767 113.9149,287.3767 C113.9149,287.3767 114.5379,293.6177 126.3999,293.3067 C138.2579,292.9947 139.1959,286.7517 139.1959,286.7517 L139.8179,269.7807 L195.6819,269.7807 L196.3059,286.7517 C196.3059,286.7517 197.5569,294.2627 209.1029,293.3137 C220.6519,292.3697 220.3369,286.4387 220.3369,286.4387 L217.8419,257.4147 C224.3959,258.0407 250.6129,257.1027 270.5869,244.3067 C290.5599,231.5117 306.7879,208.4167 315.2159,193.7477 C323.6429,179.0797 317.0889,166.5957 298.3649,182.8247 C279.6359,199.0547 234.0709,206.5447 213.4749,204.3567 C213.4749,194.9977 208.7919,100.4317 198.8039,79.8297" id="Fill-100" fill="#83BC32" sketch:type="MSShapeGroup"></path>
                        <path d="M132.9514,158.1686 C132.9514,158.1686 106.1114,162.2266 101.4314,171.2736 C96.7514,180.3266 102.3694,188.4396 110.7954,187.1906 C119.2204,185.9456 132.9514,179.3906 132.9514,179.3906 L132.9514,158.1686 Z" id="Fill-102" fill="#83BC32" sketch:type="MSShapeGroup"></path>
                        <path d="M205.9836,153.4899 L205.9836,178.4539 C205.9836,178.4539 212.6726,184.2299 225.7826,185.7889 C238.8866,187.3529 243.4316,171.5899 235.0046,165.9719 C226.5816,160.3529 205.9836,153.4899 205.9836,153.4899" id="Fill-104" fill="#83BC32" sketch:type="MSShapeGroup"></path>
                        <path d="M131.0705,223.2848 C131.0705,207.4258 143.9245,194.5728 159.7815,194.5728 C175.6405,194.5728 188.4955,207.4258 188.4955,223.2848 C188.4955,239.1438 175.6405,251.9998 159.7815,251.9998 C143.9245,251.9998 131.0705,239.1438 131.0705,223.2848" id="Fill-106" fill="#F3AB1D" sketch:type="MSShapeGroup"></path>
                        <path d="M155.7355,76.402 C155.7355,71.75 159.5085,67.976 164.1635,67.976 C168.8165,67.976 172.5905,71.75 172.5905,76.402 C172.5905,81.05 168.8165,84.826 164.1635,84.826 C159.5085,84.826 155.7355,81.05 155.7355,76.402" id="Fill-108" fill="#FFFFFF" sketch:type="MSShapeGroup"></path>
                        <path d="M162.9123,78.8961 C162.9123,76.6561 164.7283,74.8391 166.9703,74.8391 C169.2123,74.8391 171.0293,76.6561 171.0293,78.8961 C171.0293,81.1371 169.2123,82.9551 166.9703,82.9551 C164.7283,82.9551 162.9123,81.1371 162.9123,78.8961" id="Fill-110" fill="#042A46" sketch:type="MSShapeGroup"></path>
                        <path d="M140.4211,71.5035 C140.4211,67.6595 143.5341,64.5465 147.3741,64.5465 C151.2201,64.5465 154.3301,67.6595 154.3301,71.5035 C154.3301,75.3475 151.2201,78.4635 147.3741,78.4635 C143.5341,78.4635 140.4211,75.3475 140.4211,71.5035" id="Fill-112" fill="#FFFFFF" sketch:type="MSShapeGroup"></path>
                        <path d="M146.343,73.568 C146.343,71.716 147.843,70.218 149.696,70.218 C151.543,70.218 153.044,71.716 153.044,73.568 C153.044,75.416 151.543,76.918 149.696,76.918 C147.843,76.918 146.343,75.416 146.343,73.568" id="Fill-114" fill="#042A46" sketch:type="MSShapeGroup"></path>
                        <path d="M87.4758,90.9225 C87.4758,89.3295 88.7638,88.0405 90.3568,88.0405 C91.9488,88.0405 93.2378,89.3295 93.2378,90.9225 C93.2378,92.5145 91.9488,93.8055 90.3568,93.8055 C88.7638,93.8055 87.4758,92.5145 87.4758,90.9225" id="Fill-116" fill="#042A46" sketch:type="MSShapeGroup"></path>
                        <path d="M74.9855,90.9225 C74.9855,89.3295 76.2745,88.0405 77.8685,88.0405 C79.4565,88.0405 80.7475,89.3295 80.7475,90.9225 C80.7475,92.5145 79.4565,93.8055 77.8685,93.8055 C76.2745,93.8055 74.9855,92.5145 74.9855,90.9225" id="Fill-118" fill="#042A46" sketch:type="MSShapeGroup"></path>
                        <path d="M143.8332,110.4518 C145.2242,108.9198 145.1162,106.5658 143.5952,105.1638 C142.0762,103.7708 139.7102,103.8728 138.3092,105.3898 C138.2332,105.4698 130.4852,113.7238 115.0532,119.3898 C104.8942,123.1158 93.9622,121.7168 93.7512,121.6888 C92.9162,121.5758 92.1112,121.7608 91.4282,122.1428 C96.6892,124.4958 102.4002,126.7718 107.9252,128.8298 C111.0232,128.3748 114.3402,127.6298 117.6332,126.4178 C134.9042,120.0818 143.4772,110.8378 143.8332,110.4518" id="Fill-120" fill="#042A46" sketch:type="MSShapeGroup"></path>
                    </g>
                </g>
            </g>
        </g>
    </g>
</svg>