<?xml version="1.0" encoding="UTF-8" standalone="no"?>
<svg width="1440px" height="93px" viewBox="0 0 1440 93" version="1.1" xmlns="http://www.w3.org/2000/svg" xmlns:xlink="http://www.w3.org/1999/xlink" xmlns:sketch="http://www.bohemiancoding.com/sketch/ns">
    <!-- Generator: Sketch 3.4.4 (17249) - http://www.bohemiancoding.com/sketch -->
    <title>shadow</title>
    <desc>Created with Sketch.</desc>
    <defs></defs>
    <g id="Page-1" stroke="none" stroke-width="1" fill="none" fill-rule="evenodd" sketch:type="MSPage">
        <g id="Desktop-HD" sketch:type="MSArtboardGroup" transform="translate(0.000000, -1150.000000)" fill="#DDDDDD">
            <g id="shadow-+-shadow" sketch:type="MSLayerGroup" transform="translate(-307.000000, 1137.000000)">
                <g id="shadow" transform="translate(1003.068909, 61.033651) rotate(-3.000000) translate(-1003.068909, -61.033651) translate(-0.931091, 52.533651)" sketch:type="MSShapeGroup">
                    <g id="Page-1" transform="translate(-0.000000, 0.000000)">
                        <path d="M0.9492,1.24916 L500.0242,1.24916 C500.5872,1.24916 501.0382,1.04856 501.0382,0.800845714 C501.0382,0.55216 500.5872,0.351074286 500.0242,0.351074286 L0.9492,0.351074286 C0.5002,0.351074286 0.1332,0.482702857 0.0002,0.661931429 L0.0002,0.939274286 C0.1332,1.11801714 0.5002,1.24916 0.9492,1.24916" id="Fill-1"></path>
                        <path d="M317.6963,17 L333.2623,0.112685714 L302.1303,0.112685714 L317.6963,17 Z" id="Fill-21"></path>
                        <path d="M350.9707,17 L366.5357,0.112685714 L335.4057,0.112685714 L350.9707,17 Z" id="Fill-23"></path>
                        <path d="M417.521,17 L433.085,0.112685714 L401.959,0.112685714 L417.521,17 Z" id="Fill-25"></path>
                        <path d="M450.7984,17 L466.3614,0.112685714 L435.2324,0.112685714 L450.7984,17 Z" id="Fill-27"></path>
                        <path d="M484.0733,17 L499.6363,0.112685714 L468.5083,0.112685714 L484.0733,17 Z" id="Fill-29"></path>
                        <path d="M384.2466,17 L399.8116,0.112685714 L368.6816,0.112685714 L384.2466,17 Z" id="Fill-31"></path>
                    </g>
                    <g id="Page-1-Copy" transform="translate(502.000000, 0.000000)">
                        <path d="M0.9492,1.24916 L500.0242,1.24916 C500.5872,1.24916 501.0382,1.04856 501.0382,0.800845714 C501.0382,0.55216 500.5872,0.351074286 500.0242,0.351074286 L0.9492,0.351074286 C0.5002,0.351074286 0.1332,0.482702857 0.0002,0.661931429 L0.0002,0.939274286 C0.1332,1.11801714 0.5002,1.24916 0.9492,1.24916" id="Fill-1"></path>
                        <path d="M18.2183,17 L33.7823,0.112685714 L2.6543,0.112685714 L18.2183,17 Z" id="Fill-3"></path>
                        <path d="M51.4942,17 L67.0572,0.112685714 L35.9282,0.112685714 L51.4942,17 Z" id="Fill-5"></path>
                        <path d="M84.7686,17 L100.3316,0.112685714 L69.2046,0.112685714 L84.7686,17 Z" id="Fill-7"></path>
                        <path d="M118.0449,17 L133.6059,0.112685714 L102.4789,0.112685714 L118.0449,17 Z" id="Fill-9"></path>
                        <path d="M151.3198,17 L166.8848,0.112685714 L135.7558,0.112685714 L151.3198,17 Z" id="Fill-11"></path>
                        <path d="M184.5923,17 L200.1603,0.112685714 L169.0293,0.112685714 L184.5923,17 Z" id="Fill-13"></path>
                        <path d="M217.8696,17 L233.4356,0.112685714 L202.3046,0.112685714 L217.8696,17 Z" id="Fill-15"></path>
                        <path d="M251.1436,17 L266.7086,0.112685714 L235.5806,0.112685714 L251.1436,17 Z" id="Fill-17"></path>
                        <path d="M284.419,17 L299.984,0.112685714 L268.855,0.112685714 L284.419,17 Z" id="Fill-19"></path>
                        <path d="M317.6963,17 L333.2623,0.112685714 L302.1303,0.112685714 L317.6963,17 Z" id="Fill-21"></path>
                        <path d="M350.9707,17 L366.5357,0.112685714 L335.4057,0.112685714 L350.9707,17 Z" id="Fill-23"></path>
                        <path d="M417.521,17 L433.085,0.112685714 L401.959,0.112685714 L417.521,17 Z" id="Fill-25"></path>
                        <path d="M450.7984,17 L466.3614,0.112685714 L435.2324,0.112685714 L450.7984,17 Z" id="Fill-27"></path>
                        <path d="M484.0733,17 L499.6363,0.112685714 L468.5083,0.112685714 L484.0733,17 Z" id="Fill-29"></path>
                        <path d="M384.2466,17 L399.8116,0.112685714 L368.6816,0.112685714 L384.2466,17 Z" id="Fill-31"></path>
                    </g>
                    <g id="Page-1-Copy-2" transform="translate(1004.000000, 0.000000)">
                        <path d="M0.9492,1.24916 L500.0242,1.24916 C500.5872,1.24916 501.0382,1.04856 501.0382,0.800845714 C501.0382,0.55216 500.5872,0.351074286 500.0242,0.351074286 L0.9492,0.351074286 C0.5002,0.351074286 0.1332,0.482702857 0.0002,0.661931429 L0.0002,0.939274286 C0.1332,1.11801714 0.5002,1.24916 0.9492,1.24916" id="Fill-1"></path>
                        <path d="M18.2183,17 L33.7823,0.112685714 L2.6543,0.112685714 L18.2183,17 Z" id="Fill-3"></path>
                        <path d="M51.4942,17 L67.0572,0.112685714 L35.9282,0.112685714 L51.4942,17 Z" id="Fill-5"></path>
                        <path d="M84.7686,17 L100.3316,0.112685714 L69.2046,0.112685714 L84.7686,17 Z" id="Fill-7"></path>
                        <path d="M118.0449,17 L133.6059,0.112685714 L102.4789,0.112685714 L118.0449,17 Z" id="Fill-9"></path>
                        <path d="M151.3198,17 L166.8848,0.112685714 L135.7558,0.112685714 L151.3198,17 Z" id="Fill-11"></path>
                        <path d="M184.5923,17 L200.1603,0.112685714 L169.0293,0.112685714 L184.5923,17 Z" id="Fill-13"></path>
                        <path d="M217.8696,17 L233.4356,0.112685714 L202.3046,0.112685714 L217.8696,17 Z" id="Fill-15"></path>
                        <path d="M251.1436,17 L266.7086,0.112685714 L235.5806,0.112685714 L251.1436,17 Z" id="Fill-17"></path>
                        <path d="M284.419,17 L299.984,0.112685714 L268.855,0.112685714 L284.419,17 Z" id="Fill-19"></path>
                        <path d="M317.6963,17 L333.2623,0.112685714 L302.1303,0.112685714 L317.6963,17 Z" id="Fill-21"></path>
                        <path d="M350.9707,17 L366.5357,0.112685714 L335.4057,0.112685714 L350.9707,17 Z" id="Fill-23"></path>
                        <path d="M417.521,17 L433.085,0.112685714 L401.959,0.112685714 L417.521,17 Z" id="Fill-25"></path>
                        <path d="M450.7984,17 L466.3614,0.112685714 L435.2324,0.112685714 L450.7984,17 Z" id="Fill-27"></path>
                        <path d="M484.0733,17 L499.6363,0.112685714 L468.5083,0.112685714 L484.0733,17 Z" id="Fill-29"></path>
                        <path d="M384.2466,17 L399.8116,0.112685714 L368.6816,0.112685714 L384.2466,17 Z" id="Fill-31"></path>
                    </g>
                    <g id="Page-1-Copy-3" transform="translate(1506.000000, -0.000000)">
                        <path d="M0.9492,1.24916 L500.0242,1.24916 C500.5872,1.24916 501.0382,1.04856 501.0382,0.800845714 C501.0382,0.55216 500.5872,0.351074286 500.0242,0.351074286 L0.9492,0.351074286 C0.5002,0.351074286 0.1332,0.482702857 0.000200000001,0.661931429 L0.000200000001,0.939274286 C0.1332,1.11801714 0.5002,1.24916 0.9492,1.24916" id="Fill-1"></path>
                        <path d="M18.2183,17 L33.7823,0.112685714 L2.6543,0.112685714 L18.2183,17 Z" id="Fill-3"></path>
                        <path d="M51.4942,17 L67.0572,0.112685714 L35.9282,0.112685714 L51.4942,17 Z" id="Fill-5"></path>
                        <path d="M84.7686,17 L100.3316,0.112685714 L69.2046,0.112685714 L84.7686,17 Z" id="Fill-7"></path>
                        <path d="M118.0449,17 L133.6059,0.112685714 L102.4789,0.112685714 L118.0449,17 Z" id="Fill-9"></path>
                        <path d="M151.3198,17 L166.8848,0.112685714 L135.7558,0.112685714 L151.3198,17 Z" id="Fill-11"></path>
                        <path d="M184.5923,17 L200.1603,0.112685714 L169.0293,0.112685714 L184.5923,17 Z" id="Fill-13"></path>
                        <path d="M217.8696,17 L233.4356,0.112685714 L202.3046,0.112685714 L217.8696,17 Z" id="Fill-15"></path>
                        <path d="M251.1436,17 L266.7086,0.112685714 L235.5806,0.112685714 L251.1436,17 Z" id="Fill-17"></path>
                    </g>
                </g>
            </g>
        </g>
    </g>
</svg>