<?xml version="1.0" encoding="UTF-8" standalone="no"?>
<svg width="1444px" height="187px" viewBox="0 0 1444 187" version="1.1" xmlns="http://www.w3.org/2000/svg" xmlns:xlink="http://www.w3.org/1999/xlink" xmlns:sketch="http://www.bohemiancoding.com/sketch/ns">
    <!-- Generator: Sketch 3.4.4 (17249) - http://www.bohemiancoding.com/sketch -->
    <title>ranbowflag</title>
    <desc>Created with Sketch.</desc>
    <defs></defs>
    <g id="Page-1" stroke="none" stroke-width="1" fill="none" fill-rule="evenodd" sketch:type="MSPage">
        <g id="Desktop-HD" sketch:type="MSArtboardGroup" transform="translate(0.000000, -697.000000)">
            <g id="Group" sketch:type="MSLayerGroup" transform="translate(-311.000000, 684.000000)">
                <g transform="translate(1005.577334, 108.572709) rotate(-3.000000) translate(-1005.577334, -108.572709) translate(1.577334, 52.572709)" sketch:type="MSShapeGroup">
                    <g id="Page-1" transform="translate(0.000000, 76.000000)">
                        <path d="M0.9492,2.5718 L500.0242,2.5718 C500.5872,2.5718 501.0382,2.1588 501.0382,1.6488 C501.0382,1.1368 500.5872,0.7228 500.0242,0.7228 L0.9492,0.7228 C0.5002,0.7228 0.1332,0.9938 0.0002,1.3628 L0.0002,1.9338 C0.1332,2.3018 0.5002,2.5718 0.9492,2.5718" id="Fill-1" fill="#0798B0"></path>
                        <path d="M317.6963,35 L333.2623,0.232 L302.1303,0.232 L317.6963,35 Z" id="Fill-21" fill="#0798B0"></path>
                        <path d="M350.9707,35 L366.5357,0.232 L335.4057,0.232 L350.9707,35 Z" id="Fill-23" fill="#ADAD3D"></path>
                        <path d="M417.521,35 L433.085,0.232 L401.959,0.232 L417.521,35 Z" id="Fill-25" fill="#ED4000"></path>
                        <path d="M450.7984,35 L466.3614,0.232 L435.2324,0.232 L450.7984,35 Z" id="Fill-27" fill="#0798B0"></path>
                        <path d="M484.0733,35 L499.6363,0.232 L468.5083,0.232 L484.0733,35 Z" id="Fill-29" fill="#ADAD3D"></path>
                        <path d="M384.2466,35 L399.8116,0.232 L368.6816,0.232 L384.2466,35 Z" id="Fill-31" fill="#042A46"></path>
                    </g>
                    <g id="Page-1-Copy" transform="translate(502.000000, 76.000000)">
                        <path d="M0.9492,2.5718 L500.0242,2.5718 C500.5872,2.5718 501.0382,2.1588 501.0382,1.6488 C501.0382,1.1368 500.5872,0.7228 500.0242,0.7228 L0.9492,0.7228 C0.5002,0.7228 0.1332,0.9938 0.0002,1.3628 L0.0002,1.9338 C0.1332,2.3018 0.5002,2.5718 0.9492,2.5718" id="Fill-1" fill="#0798B0"></path>
                        <path d="M18.2183,35 L33.7823,0.232 L2.6543,0.232 L18.2183,35 Z" id="Fill-3" fill="#042A46"></path>
                        <path d="M51.4942,35 L67.0572,0.232 L35.9282,0.232 L51.4942,35 Z" id="Fill-5" fill="#0798B0"></path>
                        <path d="M84.7686,35 L100.3316,0.232 L69.2046,0.232 L84.7686,35 Z" id="Fill-7" fill="#ADAD3D"></path>
                        <path d="M118.0449,35 L133.6059,0.232 L102.4789,0.232 L118.0449,35 Z" id="Fill-9" fill="#ED4000"></path>
                        <path d="M151.3198,35 L166.8848,0.232 L135.7558,0.232 L151.3198,35 Z" id="Fill-11" fill="#042A46"></path>
                        <path d="M184.5923,35 L200.1603,0.232 L169.0293,0.232 L184.5923,35 Z" id="Fill-13" fill="#0798B0"></path>
                        <path d="M217.8696,35 L233.4356,0.232 L202.3046,0.232 L217.8696,35 Z" id="Fill-15" fill="#ADAD3D"></path>
                        <path d="M251.1436,35 L266.7086,0.232 L235.5806,0.232 L251.1436,35 Z" id="Fill-17" fill="#ED4000"></path>
                        <path d="M284.419,35 L299.984,0.232 L268.855,0.232 L284.419,35 Z" id="Fill-19" fill="#042A46"></path>
                        <path d="M317.6963,35 L333.2623,0.232 L302.1303,0.232 L317.6963,35 Z" id="Fill-21" fill="#0798B0"></path>
                        <path d="M350.9707,35 L366.5357,0.232 L335.4057,0.232 L350.9707,35 Z" id="Fill-23" fill="#ADAD3D"></path>
                        <path d="M417.521,35 L433.085,0.232 L401.959,0.232 L417.521,35 Z" id="Fill-25" fill="#ED4000"></path>
                        <path d="M450.7984,35 L466.3614,0.232 L435.2324,0.232 L450.7984,35 Z" id="Fill-27" fill="#0798B0"></path>
                        <path d="M484.0733,35 L499.6363,0.232 L468.5083,0.232 L484.0733,35 Z" id="Fill-29" fill="#ADAD3D"></path>
                        <path d="M384.2466,35 L399.8116,0.232 L368.6816,0.232 L384.2466,35 Z" id="Fill-31" fill="#042A46"></path>
                    </g>
                    <g id="Page-1-Copy-2" transform="translate(1004.000000, 76.000000)">
                        <path d="M500.0242,2.5718 C500.5872,2.5718 501.0382,2.1588 501.0382,1.6488 C501.0382,1.1368 500.5872,0.7228 500.0242,0.7228 L0.9492,0.7228 C0.5002,0.7228 0.1332,0.9938 0.0002,1.3628 L0.0002,1.9338 C0.1332,2.3018 0.5002,2.5718 0.9492,2.5718 L500.0242,2.5718 Z" id="Fill-1" fill="#0798B0"></path>
                        <path d="M18.2183,35 L33.7823,0.232 L2.6543,0.232 L18.2183,35 Z" id="Fill-3" fill="#042A46"></path>
                        <path d="M51.4942,35 L67.0572,0.232 L35.9282,0.232 L51.4942,35 Z" id="Fill-5" fill="#0798B0"></path>
                        <path d="M84.7686,35 L100.3316,0.232 L69.2046,0.232 L84.7686,35 Z" id="Fill-7" fill="#ADAD3D"></path>
                        <path d="M118.0449,35 L133.6059,0.232 L102.4789,0.232 L118.0449,35 Z" id="Fill-9" fill="#ED4000"></path>
                        <path d="M151.3198,35 L166.8848,0.232 L135.7558,0.232 L151.3198,35 Z" id="Fill-11" fill="#042A46"></path>
                        <path d="M184.5923,35 L200.1603,0.232 L169.0293,0.232 L184.5923,35 Z" id="Fill-13" fill="#0798B0"></path>
                        <path d="M217.8696,35 L233.4356,0.232 L202.3046,0.232 L217.8696,35 Z" id="Fill-15" fill="#ADAD3D"></path>
                        <path d="M251.1436,35 L266.7086,0.232 L235.5806,0.232 L251.1436,35 Z" id="Fill-17" fill="#ED4000"></path>
                        <path d="M284.419,35 L299.984,0.232 L268.855,0.232 L284.419,35 Z" id="Fill-19" fill="#042A46"></path>
                        <path d="M317.6963,35 L333.2623,0.232 L302.1303,0.232 L317.6963,35 Z" id="Fill-21" fill="#0798B0"></path>
                        <path d="M350.9707,35 L366.5357,0.232 L335.4057,0.232 L350.9707,35 Z" id="Fill-23" fill="#ADAD3D"></path>
                        <path d="M417.521,35 L433.085,0.232 L401.959,0.232 L417.521,35 Z" id="Fill-25" fill="#ED4000"></path>
                        <path d="M450.7984,35 L466.3614,0.232 L435.2324,0.232 L450.7984,35 Z" id="Fill-27" fill="#0798B0"></path>
                        <path d="M484.0733,35 L499.6363,0.232 L468.5083,0.232 L484.0733,35 Z" id="Fill-29" fill="#ADAD3D"></path>
                        <path d="M384.2466,35 L399.8116,0.232 L368.6816,0.232 L384.2466,35 Z" id="Fill-31" fill="#042A46"></path>
                    </g>
                    <g id="Page-1-Copy-3" transform="translate(1506.000000, 76.000000)">
                        <path d="M0.9492,2.5718 L500.0242,2.5718 C500.5872,2.5718 501.0382,2.1588 501.0382,1.6488 C501.0382,1.1368 500.5872,0.7228 500.0242,0.7228 L0.9492,0.7228 C0.5002,0.7228 0.1332,0.9938 0.0002,1.3628 L0.0002,1.9338 C0.1332,2.3018 0.5002,2.5718 0.9492,2.5718" id="Fill-1" fill="#0798B0"></path>
                        <path d="M18.2183,35 L33.7823,0.232 L2.6543,0.232 L18.2183,35 Z" id="Fill-3" fill="#042A46"></path>
                        <path d="M51.4942,35 L67.0572,0.232 L35.9282,0.232 L51.4942,35 Z" id="Fill-5" fill="#0798B0"></path>
                        <path d="M84.7686,35 L100.3316,0.232 L69.2046,0.232 L84.7686,35 Z" id="Fill-7" fill="#ADAD3D"></path>
                        <path d="M118.0449,35 L133.6059,0.232 L102.4789,0.232 L118.0449,35 Z" id="Fill-9" fill="#ED4000"></path>
                        <path d="M151.3198,35 L166.8848,0.232 L135.7558,0.232 L151.3198,35 Z" id="Fill-11" fill="#042A46"></path>
                        <path d="M184.5923,35 L200.1603,0.232 L169.0293,0.232 L184.5923,35 Z" id="Fill-13" fill="#0798B0"></path>
                        <path d="M217.8696,35 L233.4356,0.232 L202.3046,0.232 L217.8696,35 Z" id="Fill-15" fill="#ADAD3D"></path>
                        <path d="M251.1436,35 L266.7086,0.232 L235.5806,0.232 L251.1436,35 Z" id="Fill-17" fill="#ED4000"></path>
                    </g>
                </g>
            </g>
        </g>
    </g>
</svg>