<?xml version="1.0" encoding="UTF-8" standalone="no"?>
<svg width="150px" height="60px" viewBox="0 0 150 60" version="1.1" xmlns="http://www.w3.org/2000/svg" xmlns:xlink="http://www.w3.org/1999/xlink" xmlns:sketch="http://www.bohemiancoding.com/sketch/ns">
    <!-- Generator: Sketch 3.4.4 (17249) - http://www.bohemiancoding.com/sketch -->
    <title>Page 1</title>
    <desc>Created with Sketch.</desc>
    <defs></defs>
    <g id="Page-1" stroke="none" stroke-width="1" fill="none" fill-rule="evenodd" sketch:type="MSPage">
        <g sketch:type="MSLayerGroup" transform="translate(6.000000, 11.000000)" fill="#000000">
            <path d="M78.2644766,1.17557447 C78.0251574,1.31221277 77.7502638,1.40519149 77.5230723,1.558 C77.0412,1.88302128 77.037966,1.8167234 77.196434,2.34306383 C77.384817,2.97289362 77.880434,3.53723404 78.1278383,4.16625532 C78.2927745,4.58587234 78.5304766,5.96114894 78.8530723,6.10102128 C79.2306468,6.26434043 80.4442213,5.3733617 80.8088596,5.22378723 C81.2365617,5.04834043 81.7273277,5.00306383 81.9351149,4.53493617 C82.1825191,3.97544681 81.8946894,2.94782979 81.7071149,2.4093617 C81.5486468,1.95093617 81.1395404,1.00659574 80.6722213,0.762425532 C80.0391574,0.431744681 78.8457957,0.980723404 78.2644766,1.17557447 C78.2297106,1.19578723 79.0341787,0.917659574 78.2644766,1.17557447" id="Fill-1" sketch:type="MSShapeGroup"></path>
            <path d="M78.716434,11.153 C78.980817,10.7228723 80.4992,11.042234 80.9673277,11.0495106 C82.0038383,11.0656809 81.7507745,11.382617 81.4039234,12.331 C81.0845617,13.2025745 80.685966,14.2423191 79.8160085,13.3351702 C79.6357106,13.1475957 78.4860085,11.2492128 78.716434,11.153 C78.790817,11.0325319 78.6978383,11.1610851 78.716434,11.153 M81.7289447,33.2285745 C81.6141362,31.9600213 81.5971574,30.6809574 81.5817957,29.4083617 C81.5761362,28.9313404 81.409583,27.6838085 81.6569872,27.2625745 C81.8777106,26.8874255 82.744434,27.0062766 83.2796681,26.9456383 C84.5781362,26.7984894 85.896817,26.6270851 87.1273702,26.6804468 C87.5680085,26.6998511 88.1978383,26.6165745 88.5956255,26.4047447 C88.9909872,26.1945319 88.9756255,26.0692128 89.0556681,25.5388298 C89.1793702,24.7149574 89.2003915,23.7560638 88.7508596,23.0178936 C88.1687319,22.0646596 87.3392,22.2158511 86.3584766,22.2845745 C85.2209021,22.3638085 84.0954553,22.6572979 82.9506043,22.6403191 C82.5503915,22.6346596 82.3320936,22.7203617 82.1752426,22.3767447 C82.0830723,22.176234 82.1687745,21.5512553 82.1655404,21.3523617 C82.1550298,20.6845319 82.1477532,20.0175106 82.1509872,19.3496809 C83.383966,19.3836383 84.6145191,19.3399787 85.8086894,19.2623617 C87.1928596,19.1718085 88.4314979,19.3569574 88.9174128,17.9024468 C89.0233277,17.5871277 89.0669872,17.6639362 89.1154979,17.2758511 C89.1429872,17.0591702 89.1252,16.8861489 89.1146894,16.6573404 C89.0847745,16.0226596 89.0378809,15.3540213 88.7152851,14.7945319 C87.9496255,13.4669574 85.7537106,13.968234 84.4883915,14.039383 C84.7657106,13.3610426 84.9508596,12.5331277 85.3106468,11.8960213 C85.6857957,11.232234 86.0318383,11.5960638 86.7174553,11.4513404 C88.0806043,11.1627021 87.4847319,8.95465957 87.3383915,7.95614894 C87.1160511,6.43776596 86.5662638,6.32861702 85.2136255,6.3957234 C83.6540085,6.47253191 82.0879234,6.30031915 80.5307319,6.48223404 C78.9606043,6.66495745 77.4494979,6.97704255 75.8591574,7.02959574 C74.8169872,7.06355319 73.2670723,6.66253191 72.9711574,7.96342553 C72.7237532,9.05491489 72.7981362,10.964617 74.1863489,11.1368298 C74.339966,11.1554255 74.7191574,11.0624468 74.8283064,11.116617 C75.0393277,11.2209149 75.3336255,11.9461489 75.4654128,12.1361489 C75.8567319,12.7004894 76.3014128,13.208234 76.5908596,13.8315957 C75.9230298,13.9205319 75.2422638,14.1372128 74.5752426,14.193 C73.966434,14.2439362 73.3301362,14.1452979 72.7156681,14.1647021 C71.2862213,14.2099787 71.2708596,15.1147021 71.2474128,16.355766 C71.2369021,16.8901915 71.078434,17.7294255 71.4608596,18.1684468 C71.8675404,18.6341489 73.0326043,18.7319787 73.5912851,18.7958511 C74.9350298,18.9486596 76.2520936,18.9745319 77.5812851,19.0448723 C77.4810298,20.2770426 77.4842638,21.5148723 77.495583,22.7510851 C77.156817,22.4939787 76.206817,22.6500213 75.7394979,22.6152553 C74.9689872,22.5578511 74.2292,22.5052979 73.4530298,22.5069149 C72.2208596,22.5093404 71.0105191,22.321766 70.9450298,23.9169574 C70.9102638,24.7772128 70.6620511,26.6739787 71.6169021,26.962617 C72.1254553,27.1170426 73.0681787,27.0248723 73.624434,27.073383 C74.1596681,27.1194681 74.6973277,27.1550426 75.2349872,27.1687872 C75.6546043,27.1801064 76.0742213,27.1776809 76.4938383,27.1768723 C76.9813702,27.1760638 77.1123489,27.0612553 77.2780936,27.3911277 C77.5457106,27.9215106 77.3791574,29.3744043 77.4309021,29.9872553 C77.5513702,31.4142766 77.3718809,32.8105745 77.4794128,34.2367872 C77.5893702,35.6872553 78.7584766,36.1367872 80.0634128,36.0551277 C80.5646894,36.0235957 81.409583,36.0009574 81.7305617,35.5538511 C82.1008596,35.0380213 81.7798809,33.7953404 81.7289447,33.2285745 C81.7054979,32.9690426 81.7677532,33.6619362 81.7289447,33.2285745" id="Fill-3" sketch:type="MSShapeGroup"></path>
            <path d="M74.0720255,28.0468298 L74.0720255,28.0468298 C74.0809191,28.0347021 74.0825362,28.0338936 74.0720255,28.0468298" id="Fill-5" sketch:type="MSShapeGroup"></path>
            <path d="M75.2647404,32.7070851 C75.6609106,31.7732553 76.1088255,30.8628723 76.337634,29.8635532 C76.5834213,28.7914681 75.9972511,28.5020213 75.0698894,28.1260638 C74.1538468,27.7549574 73.3372511,28.4704894 72.9257191,29.3323617 C72.6079745,29.9969574 72.304783,30.6292128 71.8714213,31.2364043 C71.3944,31.9034255 70.4290383,32.7297234 71.0960596,33.5026596 C71.5278043,34.0047447 72.5950383,34.5173404 73.2717617,34.3831277 C74.1182723,34.215766 74.7521447,33.3142766 75.2647404,32.7070851 C75.3011234,32.621383 75.2113787,32.7701489 75.2647404,32.7070851" id="Fill-7" sketch:type="MSShapeGroup"></path>
            <path d="M88.981366,33.8517745 C89.5748128,33.3876894 89.5917915,32.4061574 89.7696638,31.7375191 C90.0081745,30.8416894 90.2491106,30.2417745 89.2174511,29.8706681 C88.1987277,29.5044128 87.2471106,29.2893489 86.326217,28.6813489 C85.5831957,28.190583 84.7294085,27.2308809 83.7308979,27.5397319 C83.0347702,27.7547957 82.1680468,28.9465404 82.3216638,29.6992638 C82.4049404,30.1051362 82.7728128,30.2611787 83.0355787,30.511817 C83.3428128,30.8061149 83.5683872,31.0874766 83.895834,31.4197745 C84.5531532,32.0867957 85.2492809,32.7101574 86.0788128,33.1548383 C86.816983,33.5510085 88.1372809,34.5123277 88.981366,33.8517745 C89.5287277,33.4240723 88.7436638,34.0377319 88.981366,33.8517745" id="Fill-9" sketch:type="MSShapeGroup"></path>
            <path d="M95.6008043,18.4072 C95.1690596,18.4379234 94.3742936,18.6643064 94.1681234,18.220434 C94.0371447,17.9382638 94.4672723,16.1652 94.3516553,16.0867745 C95.3097404,15.9800511 96.3802085,16.0123915 97.3423362,16.0706043 C97.5501234,16.0835404 98.3076979,16.0843489 98.4249319,16.1934979 C98.6011872,16.3576255 98.5518681,17.9997106 98.5931021,18.2608596 C97.597017,18.3384766 96.5968894,18.3368596 95.6008043,18.4072 C95.2369745,18.4330723 96.5912298,18.3376681 95.6008043,18.4072 M93.3782085,6.36928511 C93.1211021,6.31754043 93.152634,5.48396596 93.2100383,5.22928511 C93.3418255,4.63907234 93.5091872,4.57924255 94.0622085,4.52426383 C95.0299957,4.42885957 96.0551872,4.53073191 97.0132723,4.62451915 C97.631783,4.68596596 97.6390596,4.64311489 97.6560383,5.30851915 C97.6608894,5.47830638 97.7732723,6.2852 97.6972723,6.37251915 C97.6180383,6.46468936 97.1005915,6.48166809 96.9728468,6.5059234 C95.6881234,6.74605106 94.6499957,6.6272 93.3782085,6.36928511 C93.3394,6.36200851 94.0549319,6.50673191 93.3782085,6.36928511 M97.9066766,12.9400511 C97.9624638,12.9311574 97.5565915,13.1680511 97.5501234,13.1704766 C97.2339957,13.2949872 96.7974,13.273966 96.4626766,13.2699234 C95.9161234,13.2642638 94.7049745,13.3265191 94.2036979,13.0071574 C93.5771021,12.6069447 94.096166,11.3311149 94.0056128,10.6487319 C94.785017,10.6074979 95.5603787,10.5145191 96.3325064,10.4029447 C96.7173574,10.3471574 97.4854426,10.088434 97.7635702,10.3843489 C98.1395277,10.7845617 97.7926766,12.4056255 97.9066766,12.9400511 M89.8983787,1.94430638 C89.9016128,1.90064681 89.9792298,1.81494468 89.8983787,1.94430638 C89.8991872,1.92975319 89.9121234,1.9224766 89.8983787,1.94430638 M103.839528,28.3518809 C102.957443,28.5418809 102.299315,28.8596255 102.440804,29.8694553 C100.782549,29.6463064 100.42357,27.5991574 99.796166,26.276434 C99.4274851,25.4986468 99.112166,24.6941787 98.7928043,23.8880936 C98.6214,23.4539234 98.4912298,23.115966 98.4459532,22.6534979 C98.4216979,22.4052851 98.6116979,21.6881362 98.1880383,21.6533702 C98.2729319,21.4908596 99.0830596,21.600817 99.2585064,21.597583 C99.8948043,21.5838383 100.554549,21.600817 101.125357,21.2709447 C102.23706,20.6273702 102.148932,19.2351149 102.289613,18.1412 C102.512762,16.4061362 102.332464,14.5497957 102.29123,12.8058383 C102.248379,10.9680936 102.239485,9.13277447 102.265357,7.29502979 C102.286379,5.82677447 102.648591,3.78690213 101.902336,2.4698383 C101.157698,1.1552 99.9748468,1.05009362 98.6133149,0.966008511 C96.8968468,0.860093617 95.1957404,0.969242553 93.4816979,1.03554043 C92.3788894,1.07839149 90.8993149,0.971668085 90.0277404,1.74945532 C89.086634,2.58949787 89.2661234,4.18711489 89.3194851,5.28507234 C89.3874,6.6959234 89.6372298,8.12617872 89.8102511,9.49902979 C90.0277404,11.2179234 89.7059532,12.9934128 89.8975702,14.724434 C90.068166,16.2751574 90.1878255,17.9083489 90.4853574,19.4388596 C90.6915277,20.4980085 91.2421234,21.1197532 92.3457404,21.2547745 C93.0653149,21.3429021 93.7048468,21.2297106 94.1745915,21.9072426 C94.5925915,22.5103915 94.5295277,23.6180511 94.4187617,24.3190298 C93.8883787,27.6525191 91.9309745,30.6803915 90.1781234,33.4786468 C89.8094426,34.0656255 89.4351021,34.6057106 88.8804638,35.0366468 C88.4842936,35.3438809 87.2173574,35.7602638 87.5803787,36.3876681 C87.8617404,36.8727745 89.461783,37.0199234 89.9258681,37.2867319 C90.3842936,37.5511149 91.2655702,38.1461787 91.8800383,37.9666894 C92.4459957,37.8025617 92.8761234,36.3965617 93.1405064,35.8338383 C93.4994851,35.0706043 93.9304213,34.3550723 94.3298255,33.6136681 C95.0930596,32.1971574 95.9937404,30.8970723 96.8410596,29.5363489 C97.8702936,32.8164766 100.772038,34.0801787 104.006081,33.8667319 C106.067783,33.7309021 105.793698,32.007966 105.8034,30.3974128 C105.813102,28.9275404 105.458166,28.0026043 103.839528,28.3518809 C103.381102,28.4505191 104.280974,28.2564766 103.839528,28.3518809" id="Fill-11" sketch:type="MSShapeGroup"></path>
            <path d="M137.017651,18.4258766 C136.949736,16.8185574 136.163055,16.5614511 134.736843,16.4611957 C133.27263,16.3585149 131.820545,16.3746851 130.353098,16.3746851 C128.922034,16.3754936 127.3228,16.5735787 125.913566,16.3625574 C125.143055,16.2477489 125.093736,16.0270255 125.079991,15.2338766 C125.067055,14.501366 125.120417,13.7631957 125.316077,13.0541319 C126.004928,10.5550255 128.083609,8.69868511 129.921353,7.01617447 C130.735523,6.27072766 131.640247,5.40885532 131.784162,4.25591915 C131.929694,3.09328085 131.716247,1.99613191 130.447694,1.80128085 C128.137779,1.44715319 125.590162,1.54336596 123.229311,1.55549362 C120.313013,1.57085532 117.199438,1.17791915 114.217651,1.4706 C113.168204,1.57408936 112.694417,1.75438723 112.273183,2.75208936 C111.86246,3.72553617 110.715991,5.44766383 112.1988,5.97804681 C113.392162,6.40574894 114.866077,5.90528085 116.100672,5.8939617 C117.585906,5.88021702 119.080034,5.93762128 120.562034,6.0378766 C120.986502,6.06617447 122.130545,6.04191915 122.495991,6.28042979 C122.770885,6.45911064 122.956843,7.33715319 122.909949,7.66864255 C122.833949,8.21438723 122.210587,8.82966383 121.936502,9.30345106 C121.595311,9.89366383 121.253311,10.441834 120.933949,11.0385149 C120.225694,12.3604298 120.313013,13.7017489 120.265311,15.153834 C120.251566,15.5815362 120.40114,16.3277915 120.060757,16.6285574 C119.594247,17.0400894 118.037055,16.8444298 117.451694,16.8719191 C114.703566,16.9988553 111.801821,17.1540894 109.058545,16.939834 C108.406077,16.8897064 108.142502,16.6010681 107.890247,17.2341319 C107.727736,17.6424298 107.819098,18.4574085 107.853864,18.9085574 C107.885396,19.3168553 107.92663,19.7114085 107.924204,20.1431532 C107.919353,20.886983 107.849013,21.3017489 108.690672,21.4181745 C109.922843,21.5887702 111.377353,21.4011957 112.625694,21.4141319 C114.214417,21.4303021 115.802332,21.575834 117.389438,21.5507702 C118.158332,21.5386426 120.429438,21.1659191 120.811055,22.0035362 C121.041481,22.5080468 120.863609,23.4022596 120.865226,23.9431532 C120.867651,24.647366 120.804587,25.2957915 120.718077,25.9967702 C120.562843,27.2564298 120.456928,28.3584298 119.939481,29.5307702 C119.756757,29.9439191 119.757566,30.086217 119.370289,30.2301319 C119.164119,30.3069404 118.487396,30.3101745 118.296587,30.2317489 C117.544672,29.9253234 117.032077,29.0303021 116.185566,28.7828979 C115.415055,28.5565149 114.141651,29.1556213 113.663821,29.7943447 C113.380034,30.1735362 113.274928,30.8486426 113.314545,31.3175787 C113.390545,32.2085574 114.119013,32.5166 114.801396,32.9176213 C116.149183,33.7115787 117.273821,34.5855787 118.726715,35.2105574 C119.865098,35.7005149 121.481311,36.5696638 122.617268,35.6916213 C123.249523,35.2024723 123.306119,34.6308553 123.478332,33.8837915 C123.644885,33.1617915 123.91897,32.4664723 124.125949,31.7509404 C124.610247,30.0765149 125.011268,28.3341745 125.21097,26.6015362 C125.313651,25.7105574 125.367013,24.8381745 125.430885,23.9471957 C125.473736,23.3650681 125.443821,22.5897064 125.716289,22.0407277 C125.751864,21.9695787 125.823013,21.6049404 125.890928,21.5653234 C126.118119,21.4303021 127.0948,21.6170681 127.389098,21.613834 C128.1208,21.6057489 128.853311,21.5976638 129.585821,21.5976638 C131.365353,21.5976638 133.144885,21.5960468 134.924417,21.5944298 C135.557481,21.5936213 136.375694,21.5782596 136.796928,20.9953234 C137.2788,20.3291106 137.049183,19.1794085 137.017651,18.4258766 C136.994204,17.8631532 137.041098,18.985366 137.017651,18.4258766" id="Fill-13" sketch:type="MSShapeGroup"></path>
            <g id="Group-17" sketch:type="MSShapeGroup">
                <path d="M18.1273745,13.1737915 C18.4014596,12.9571106 19.2536298,13.1341745 19.5657149,13.1252809 C20.2238426,13.1058766 20.8763106,13.057366 21.5384809,13.0670681 C22.349417,13.0791957 23.6737574,12.8382596 24.2914596,13.4947702 C24.9520128,14.197366 24.6585234,15.7674936 24.6811617,16.6479617 C24.6957149,17.1815787 24.6326511,17.6957915 24.6100128,18.2229404 C24.5800979,18.9376638 24.7515021,19.3370681 24.1661404,19.7906426 C23.4489915,20.3468979 22.2588638,20.5967277 21.3824383,20.7721745 C20.6968213,20.9096213 18.8663532,21.2023021 18.394183,20.4633234 C18.1831617,20.1334511 18.3109064,19.4090255 18.2777574,19.0193234 C18.2219702,18.3652383 18.1686085,17.7103447 18.126566,17.0546426 C18.0966511,16.597834 17.9236298,13.1576213 18.1273745,13.1737915 C18.1669915,13.1422596 18.0869489,13.1705574 18.1273745,13.1737915 M8.76562979,21.114983 C8.07839574,21.1263021 7.43320426,21.1440894 6.75809787,21.2524298 C6.16626809,21.3470255 5.5518,21.4966 4.98584255,21.2023021 C3.87899149,20.625834 4.20886383,19.2845149 4.14741702,18.269834 C4.08111915,17.1637915 3.6065234,15.3980043 4.38754468,14.4666 C4.91469362,13.8375787 6.22690638,13.9855362 7.00226809,13.9677489 C8.15762979,13.9426851 9.5418,13.7712809 10.6494596,14.0777064 C11.8290766,14.4043447 11.7676298,15.4327702 11.8517149,16.5485149 C11.9269064,17.5446 12.426566,19.252983 11.7280128,20.0817064 C11.0318851,20.9088128 9.7851617,21.1497489 8.76562979,21.114983 C8.4705234,21.119834 8.92571489,21.1206426 8.76562979,21.114983 M0.353885106,21.9566426 C0.465459574,22.8540894 0.760565957,23.7256638 1.22950213,24.5131532 C1.84154468,25.5391532 3.06158723,25.5876638 4.15873617,25.5876638 C5.94797021,25.5876638 7.8698,25.3297489 9.62022553,25.5326851 C10.189417,25.598983 10.8111617,25.6103021 11.369034,25.7089404 C12.357034,25.8819617 12.2866936,26.7794085 12.1953319,27.5976213 C12.0918426,28.523366 12.0740553,29.3779617 12.1355021,30.3126 C12.2090766,31.4388553 12.124183,32.5756213 12.4168638,33.6751957 C12.9545234,35.6972809 14.9062681,35.2623021 16.5912043,35.1612383 C17.4967362,35.1070681 18.2858426,35.0852383 18.3295021,34.034983 C18.3675021,33.0971106 18.2793745,32.1826851 18.2268213,31.2528979 C18.1702255,30.2438766 18.0707787,29.2324298 17.9923532,28.225834 C17.9527362,27.7205149 17.9212043,27.2766426 17.9931617,26.7688979 C18.017417,26.5942596 18.0101404,26.2724723 18.1103957,26.1002596 C18.3723532,25.6515362 18.5534596,25.8075787 19.0660553,25.7655362 C21.014566,25.6046426 22.919417,25.3443021 24.8824809,25.1017489 C25.8729064,24.9788553 27.210183,25.032217 27.9790766,24.4314936 C28.7002681,23.8679617 28.7738426,22.5606 28.9686936,21.6413234 C29.2937149,20.1043447 29.6017574,18.5867702 29.8499702,17.0425149 C30.0189489,15.9857915 29.9138426,14.9719191 29.8289489,13.9208553 C29.7456723,12.9021319 29.8742255,11.5203872 29.4198426,10.5792809 C28.5903106,8.86200426 26.5560979,8.85311064 24.8840979,8.76983404 C23.8079702,8.71647234 22.7326511,8.79570638 21.6565234,8.78600426 C20.8366936,8.77953617 18.9229489,8.99298298 18.3157574,8.3558766 C17.7878,7.80366383 18.0982681,6.51813191 18.0982681,5.80098298 C18.0990766,4.7539617 18.1306085,3.6058766 17.8516723,2.58634468 C17.6083106,1.69698298 16.9275447,1.04047234 16.1020553,0.640259574 C15.3420553,0.271578723 13.8535872,0.2166 13.1784809,0.73647234 C11.6722255,1.89749362 12.1856298,3.99800426 12.1937149,5.61745106 C12.1969489,6.2739617 12.122566,6.96200426 12.1152894,7.59506809 C12.1112468,7.87481277 12.3214596,8.44077021 12.1395447,8.70030213 C11.8428213,9.12234468 9.83124681,8.9186 9.26609787,8.96306809 C6.85188511,9.15468511 4.32124681,8.3558766 1.96120426,9.17813191 C-0.102114894,9.89770638 0.184906383,12.6490681 0.050693617,14.3986851 C-0.145774468,16.9648979 0.286778723,19.409834 0.353885106,21.9566426 C0.361970213,22.0221319 0.353076596,21.9234936 0.353885106,21.9566426" id="Fill-15"></path>
            </g>
            <path d="M53.4227447,12.7958128 C54.435,12.0463234 55.913766,12.3373872 57.057,12.4360255 C57.6100213,12.4845362 58.1630426,12.4885787 58.7168723,12.4829191 C59.414617,12.474834 59.831,12.3001957 60.1034681,12.9356851 C60.3670426,13.5509617 60.2328298,14.5349191 60.2263617,15.1833447 C60.2182766,15.926366 60.2069574,16.6669617 60.2279787,17.4107915 C60.2611277,18.5338128 60.7890851,20.5761106 59.642617,21.2447489 C58.8195532,21.7241957 57.585766,21.626366 56.675383,21.6239404 C55.5167872,21.6207064 54.1035106,21.5196426 53.3992979,20.4604936 C52.8131277,19.5784085 52.9602766,17.9209617 52.9028723,16.876366 C52.8478936,15.8916 52.4945745,13.4830468 53.4227447,12.7958128 C53.6321489,12.6405787 53.2375957,12.9324511 53.4227447,12.7958128 M41.5934255,13.5024511 C42.4496383,12.9866213 43.6308723,13.0181532 44.5978511,12.9728766 C45.0069574,12.9534723 45.9327021,12.7699404 46.303,12.9591319 C46.6660213,13.1442809 46.7072553,14.0271745 46.7735532,14.4928766 C46.9578936,15.7824511 47.0670426,17.1464085 47.1301064,18.4473021 C47.173766,19.3504085 47.4211702,20.7863234 46.6215532,21.3854298 C45.850234,21.9627064 44.5105319,21.8737702 43.5855957,21.7541106 C42.499766,21.6134298 41.9014681,21.1913872 41.4964043,20.2147064 C41.0614255,19.1660681 40.9579362,17.9816 40.9959362,16.8593872 C41.0298936,15.8794723 40.6248298,14.0870043 41.5934255,13.5024511 C42.2927872,13.081217 41.3023617,13.6778979 41.5934255,13.5024511 M41.5901915,26.1467489 C42.7455532,26.2106213 44.0092553,26.0384085 45.2018085,26.0958128 C45.6198085,26.115217 46.3878936,25.9502809 46.5617234,26.2478128 C46.7856809,26.6318553 46.5407021,27.8365362 46.5196809,28.2771745 C46.4501489,29.6912596 46.5867872,31.0713872 46.5964894,32.4870894 C46.6021489,33.3578553 46.6458085,34.8810894 47.5295106,35.2982809 C48.4415106,35.7284085 49.7335106,35.8707064 50.7336383,35.8456426 C51.849383,35.8165362 53.2707447,35.2893872 53.6555957,34.1445362 C54.0355957,33.0142383 53.6111277,31.7456851 53.6151702,30.5838553 C53.6200213,29.1422809 53.7663617,27.6085362 53.5658511,26.1790894 C55.2936383,26.1920255 57.0731702,26.1289617 58.7961064,25.921983 C59.5819787,25.8273872 60.3201489,25.7141957 61.1100638,25.7109617 C61.7212979,25.7085362 62.4586596,25.7238979 63.0488723,25.546834 C64.5761489,25.089217 64.2519362,22.7227064 64.4362766,21.480834 C64.6384043,20.1193021 64.8801489,18.7674723 65.037,17.3962383 C65.230234,15.7137277 65.2512553,14.0287915 65.2544894,12.3365787 C65.2569149,11.1124936 65.2949149,9.13083404 63.8678936,8.7629617 C62.5742766,8.42904681 60.8731702,8.73062128 59.5326596,8.75568511 C57.7692979,8.78964255 56.0010851,8.84219574 54.2401489,8.7629617 C53.6305319,8.73547234 53.410617,8.67483404 53.3071277,8.02398298 C53.2092979,7.41194043 53.3030851,6.65921702 53.329766,6.03828085 C53.3815106,4.83036596 53.7962766,2.84547234 53.0718511,1.77742979 C52.4371702,0.841982979 51.2155106,1.14921702 50.2364043,1.01338723 C48.9500638,0.835514894 47.5262766,0.530706383 46.8422766,1.99330213 C46.2447872,3.26994043 46.3329149,5.13436596 46.3102766,6.5128766 C46.3021915,7.01091915 46.4905745,8.16142979 46.2439787,8.5042383 C45.919766,8.95457872 44.9075106,8.72577021 44.4321064,8.72577021 C42.6105319,8.72415319 40.7655106,8.63279149 38.9463617,8.72577021 C38.2704468,8.76053617 37.6001915,8.88181277 36.9339787,8.93113191 C36.3704468,8.97317447 35.9112128,8.91253617 35.5950851,9.46879149 C34.7881915,10.8909617 35.4398511,13.1321532 35.6338936,14.6335574 C35.8643191,16.4244085 36.1295106,18.2176851 36.2879787,20.0166213 C36.3688298,20.9302383 36.4504894,21.8478979 36.499,22.7639404 C36.540234,23.5554723 36.381766,24.5297277 36.7156809,25.2767915 C37.3924043,26.7919404 40.3167872,26.0764085 41.5901915,26.1467489 C41.6823617,26.1516 40.5900638,26.0917702 41.5901915,26.1467489" id="Fill-18" sketch:type="MSShapeGroup"></path>
        </g>
    </g>
</svg>